<?xml version="1.0" encoding="utf-8"?>
<!-- Generator: Adobe Illustrator 21.0.0, SVG Export Plug-In . SVG Version: 6.00 Build 0)  -->
<svg version="1.1" id="Layer_1" xmlns="http://www.w3.org/2000/svg" xmlns:xlink="http://www.w3.org/1999/xlink" x="0px" y="0px"
	 viewBox="0 0 56.7 68.8" style="enable-background:new 0 0 56.7 68.8;" xml:space="preserve">
<style type="text/css">
	.st0{fill:#069648;}
	.st1{fill:#144BA0;}
	.st2{fill:#FFFFFF;}
	.st3{fill:#F9C620;}
	.st4{fill:#C1272E;}
	.st5{fill:#FAE62A;}
</style>
<g>
	<g>
		<path class="st0" d="M21,14.2c-0.6,0.5-0.7,0.2-1.4,0.7c-0.6,0.4-0.8,0.9-1.3,1.4c0.3-0.8,0.7-1.6,1.1-2.3c0.5,0,0.8,0,1.4-0.3
			c0.6-0.3,1.2-0.8,1.8-1.6c-0.6,0.4-0.7,0.1-1.5,0.5c-0.6,0.3-1,0.7-1.5,1.2c0.4-0.6,0.8-1.1,1.3-1.6c0.8-0.4,1.5-0.3,2.2-0.9
			c0.6-0.7,0.5-1,1.1-1.5c-1,0.1-1.8,0.3-2.4,0.8c-0.5,0.4-0.7,0.8-0.9,1.4c-0.5,0.5-0.9,1.1-1.4,1.6c0.3-0.6,0.5-1,0.6-1.7
			c0.1-0.8-0.2-0.8-0.1-1.5c-0.5,0.8-0.9,1.6-1,2.3c-0.1,0.6,0,1,0.2,1.4c-0.5,0.7-0.8,1.4-1.1,2.3c0.1-0.6,0.3-1.2,0.2-1.8
			c-0.1-0.8-0.4-0.8-0.5-1.6c-0.4,0.9-0.5,1.7-0.5,2.4c0.1,0.6,0.2,1,0.5,1.4c-0.3,0.8-0.5,1.6-0.6,2.5c0-0.7,0.1-1.3-0.2-1.9
			c-0.3-0.8-0.6-0.8-0.8-1.5c-0.2,1-0.2,1.8,0.1,2.5c0.2,0.6,0.5,1,0.9,1.4c-0.1,0.6-0.1,1.2-0.1,1.8c0,0.3,0,0.5,0,0.7
			c-0.2-0.7-0.2-1.3-0.6-1.9c-0.5-0.7-0.8-0.6-1.2-1.3c0,1,0.2,1.8,0.6,2.4c0.4,0.6,0.7,0.9,1.3,1.2c0.1,0.8,0.2,1.6,0.4,2.4
			c-0.3-0.6-0.4-1.1-1-1.6c-0.7-0.6-1-0.5-1.5-1.1c0.2,1,0.5,1.7,1.1,2.3c0.5,0.5,0.9,0.7,1.5,0.9c0.2,0.8,0.5,1.6,0.9,2.3
			c-0.4-0.5-0.7-1-1.3-1.4c-0.9-0.5-1.1-0.2-1.8-0.7c0.5,0.9,1,1.6,1.6,2c0.6,0.4,1.1,0.5,1.8,0.5c0.4,0.7,0.8,1.4,1.4,2
			c-0.5-0.4-0.8-0.8-1.6-1c-1-0.2-1.2,0.1-2-0.2c0.6,0.8,1.3,1.4,2,1.6c0.7,0.2,1.2,0.2,1.9,0.1c0.5,0.6,1.1,1.1,1.7,1.5
			c-0.5-0.3-1-0.5-1.7-0.5c-1,0-1.2,0.4-2.1,0.3c0.8,0.6,1.6,1,2.4,1c0.8,0,1.3-0.1,2-0.5c0.6,0.4,1.3,0.7,2,1
			c0.1-0.1,0.2-0.3,0.4-0.4c-0.7-0.2-1.4-0.5-2-0.9c0.3-0.6,0.4-1,0.4-1.7c0-0.8-0.4-1.5-1.1-2.3c0.1,0.8-0.3,1-0.3,1.9
			c0,0.8,0.3,1.2,0.6,1.8c-0.7-0.5-1.3-1-1.9-1.6c0.4-0.5,0.6-0.9,0.7-1.5c0.1-0.7-0.1-1.5-0.5-2.4c-0.1,0.8-0.5,0.8-0.6,1.7
			c-0.2,0.7,0.1,1.2,0.3,1.9c-0.5-0.6-1-1.3-1.5-2c0.5-0.4,0.7-0.7,0.9-1.4s0.2-1.5-0.1-2.4C20,25,19.6,25,19.3,25.8
			c-0.3,0.7-0.1,1.2-0.1,1.9c-0.4-0.7-0.7-1.5-1-2.3c0.5-0.3,0.8-0.5,1.1-1.1c0.4-0.6,0.5-1.4,0.4-2.4c-0.4,0.7-0.7,0.6-1.1,1.3
			c-0.4,0.6-0.4,1.2-0.5,1.8c-0.2-0.8-0.4-1.6-0.5-2.5c0.5-0.2,0.8-0.4,1.2-0.9s0.7-1.3,0.8-2.3c-0.5,0.6-0.7,0.5-1.3,1.1
			c-0.5,0.5-0.5,1.1-0.7,1.7c0-0.3,0-0.6,0-0.9c0-0.5,0-1.1,0.1-1.6c0.5-0.1,0.8-0.3,1.3-0.7c0.5-0.5,0.9-1.2,1.2-2.1
			c-0.5,0.5-0.7,0.4-1.4,0.9c-0.5,0.5-0.7,1-1,1.6c0.1-0.9,0.3-1.7,0.6-2.5c0.5,0,0.8-0.2,1.4-0.5C20,15.7,20.5,15.1,21,14.2
			 M33.3,10c0.2-0.2,0.5-0.3,0.8-0.2c0,0,0-0.1,0.1-0.1c0.2-0.3,0.5-0.3,0.8-0.1l0.1,0.1c0.1-0.1,0.1-0.1,0.2-0.2
			c0,0.2,0,0.5,0.1,0.6c0.1,0.2,0.2,0.5,0.2,0.7l0,0h0.1c0,0,0-0.1,0.1-0.1c0.2-0.2,0.6-0.2,0.9,0l0.1,0.1c0.1-0.1,0.2-0.1,0.2-0.1
			c-0.1,0.2-0.1,0.5,0,0.7s0.1,0.5,0.1,0.7l0.1,0.1l0.1-0.1c0.3-0.2,0.7-0.1,0.9,0.2c0,0.1,0.1,0.1,0.1,0.2c0.1,0,0.2-0.1,0.3-0.1
			c-0.1,0.2-0.2,0.5-0.2,0.7c0,0.3,0,0.5-0.1,0.8l0,0c0,0,0,0,0.1,0.1c0,0,0.1,0,0.1-0.1c0.3-0.2,0.7,0,0.9,0.3
			c0,0.1,0.1,0.1,0.1,0.2c0.1,0,0.2-0.1,0.3-0.1c-0.2,0.2-0.3,0.5-0.3,0.7c0,0.3-0.1,0.6-0.2,0.8v0.1c0,0,0.1,0,0.1-0.1
			c0.4-0.1,0.8,0.1,0.9,0.4c0,0.1,0,0.1,0,0.2c0.1,0,0.2,0,0.3,0c-0.2,0.2-0.4,0.5-0.4,0.7c0,0.3-0.2,0.6-0.4,0.8V18l0,0h0.1
			c0.4-0.1,0.8,0.2,0.9,0.6c0,0.1,0,0.1,0,0.2c0.1,0,0.2,0,0.3,0c-0.2,0.2-0.5,0.4-0.5,0.7c-0.1,0.3-0.3,0.6-0.5,0.8v0.1
			c0,0,0,0,0,0.1h0.1c0.4,0,0.8,0.3,0.8,0.8c0,0.1,0,0.1,0,0.2c0.1,0,0.2,0.1,0.3,0.1c-0.3,0.2-0.5,0.4-0.6,0.6
			c-0.1,0.3-0.4,0.5-0.6,0.7V23c0,0,0,0,0,0.1h0.1c0.5,0.1,0.7,0.5,0.7,0.9c0,0.1,0,0.1-0.1,0.2c0.1,0,0.2,0.1,0.3,0.2
			c-0.3,0.1-0.6,0.3-0.8,0.5c-0.2,0.3-0.5,0.5-0.8,0.6c0,0.1-0.1,0.1-0.1,0.2l0,0c0.1,0,0.1,0,0.2,0c0.5,0.2,0.7,0.6,0.5,1.1
			c0,0.1-0.1,0.1-0.1,0.2c0.1,0.1,0.2,0.1,0.3,0.2c-0.4,0.1-0.7,0.2-0.9,0.4c-0.3,0.2-0.6,0.4-0.9,0.5c0,0.1-0.1,0.1-0.1,0.1
			c0,0.1,0,0.1,0,0.1s0.1,0,0.1,0.1c0.4,0.3,0.5,0.8,0.3,1.2c0,0.1-0.1,0.1-0.2,0.2c0.1,0.1,0.2,0.2,0.3,0.3c-0.4,0-0.7,0-1,0.2
			s-0.7,0.3-1.1,0.3c0,0,0,0-0.1,0c0,0.1,0,0.1-0.1,0.2l0.1,0.1c0.4,0.4,0.4,0.9,0,1.3c-0.1,0.1-0.1,0.1-0.2,0.1
			c0.1,0.1,0.2,0.2,0.2,0.4c-0.4-0.1-0.7-0.2-1-0.1c-0.4,0.1-0.7,0.1-1.1,0c-0.2,0.2-0.6,0-0.9-0.3c-0.7,0.5-1.4,0.8-2.2,1.1
			c-0.1-0.1-0.2-0.3-0.4-0.4c0.8-0.3,1.6-0.6,2.3-1.1c-0.1-0.2-0.1-0.4,0-0.6c-0.1-0.4-0.1-0.8,0-1.1s0-0.7-0.1-1
			c0.1,0.1,0.2,0.1,0.4,0.2c0-0.1,0.1-0.1,0.2-0.2c0.4-0.4,0.9-0.3,1.3,0l0.1,0.1c0,0,0.1,0,0.1-0.1c-0.1-0.3-0.1-0.5-0.1-0.8
			s-0.1-0.6-0.3-0.9c0.1,0,0.3,0.1,0.4,0.1c0-0.1,0.1-0.2,0.1-0.2c0.3-0.4,0.8-0.5,1.2-0.3l0.1,0.1c0,0,0,0,0.1-0.1
			c-0.1-0.2-0.2-0.5-0.3-0.7c0-0.3-0.2-0.6-0.5-0.8c0.1,0,0.3,0,0.4,0c0-0.1,0-0.2,0-0.2c0.2-0.4,0.6-0.7,1.1-0.5c0,0,0.1,0,0.1,0.1
			c0,0,0-0.1,0.1-0.1c-0.2-0.2-0.3-0.4-0.3-0.6c-0.1-0.3-0.3-0.5-0.6-0.7c0.1,0,0.2,0,0.4,0c0-0.1,0-0.1,0-0.2
			c0.1-0.5,0.5-0.7,0.9-0.7h0.1c0,0,0,0,0-0.1c-0.2-0.1-0.3-0.3-0.4-0.5c-0.1-0.2-0.4-0.4-0.7-0.6c0.1,0,0.2-0.1,0.3-0.1
			c0-0.1,0-0.1,0-0.2c0-0.4,0.4-0.8,0.8-0.8h0.1l0,0c-0.2-0.1-0.4-0.3-0.5-0.4c-0.2-0.2-0.4-0.4-0.7-0.5c0.1-0.1,0.2-0.1,0.3-0.1
			c0-0.1-0.1-0.1-0.1-0.2c-0.1-0.4,0.2-0.8,0.6-0.9h0.1l0,0c-0.2-0.1-0.4-0.2-0.5-0.3c-0.2-0.2-0.5-0.3-0.7-0.3
			c0.1-0.1,0.2-0.1,0.3-0.2c0-0.1-0.1-0.1-0.1-0.2c-0.1-0.4,0.1-0.8,0.4-0.9h0.1c0,0,0,0,0-0.1c-0.2,0-0.4-0.1-0.5-0.2
			c-0.2-0.1-0.5-0.2-0.7-0.2c0.1-0.1,0.1-0.1,0.2-0.2c0,0-0.1-0.1-0.1-0.2c-0.2-0.3-0.1-0.7,0.3-0.9h0.1l0,0c-0.2,0-0.4-0.1-0.5-0.2
			c-0.2-0.1-0.5-0.1-0.7-0.1c0.1-0.1,0.1-0.2,0.2-0.2L35.8,14c-0.2-0.3-0.2-0.7,0.1-0.9c0,0,0.1,0,0.1-0.1l0,0c-0.2,0-0.4,0-0.6-0.1
			c-0.2-0.1-0.5,0-0.7,0c0-0.1,0.1-0.2,0.1-0.2c-0.1,0-0.1-0.1-0.1-0.1c-0.3-0.3-0.3-0.6,0-0.9l0.1-0.1c0,0,0,0,0-0.1
			c-0.2,0-0.4,0-0.5,0c-0.2,0-0.5,0-0.6,0.1c0-0.1,0.1-0.2,0.1-0.2c-0.1,0-0.1,0-0.1-0.1c-0.3-0.2-0.3-0.6-0.2-0.8
			c0,0,0-0.1,0.1-0.1C33.2,10.5,33.1,10.2,33.3,10z M28.2,4.7L28.2,4.7L28.2,4.7c-5.7,0-11,3-14.7,8c-3.8,5-6.2,11.8-6.2,19.4l0,0
			l0,0c0,3.8,0.6,7.5,1.7,10.8c0,0.1,0.1,0.2,0.1,0.4l4-4.5h6.6l1.1,1.2l4-4.6h2.1c0.1-0.4,0.2-0.8,0.4-1.2c-0.4-0.4-0.5-1-0.5-1.5
			s0.2-1,0.5-1.4c0.1,0,0.2,0,0.2,0v-0.4c-0.1,0-0.2,0-0.3,0c-0.1-0.1-0.1-0.2-0.2-0.3c-0.5-0.1-1.1-0.4-1.1-1c0-0.4,0.3-0.7,0.5-1
			v-0.3c-0.9,0.1-1.5-0.9-1.4-1.7c0.1-1.2,1.5-1.9,2.4-0.7c0.6-0.3,1-0.7,1.3-1.3c0.4-0.7,0.5-1.8,0.4-3.2C29,20.2,28.6,19,28,18
			c-1.1-1.7-2.8-3.3-3.4-5.6c0.6-0.1,1.2-0.1,1.8,0.1c-0.6-2.3-0.3-4.2,1.3-5.9c0,2.6,0.5,3.6,2.2,5.3c0.9-0.3,1.8,0.1,1.9,1.1
			c0.6,0.1,1,0.6,1.1,1.2c0.6,0.2,1,0.9,0.8,1.5c0.5,0.5,0.6,1.2,0.2,1.7c0.5,0.6,0.5,1.6-0.2,2c0,1.3-0.3,2.5-0.8,3.6
			c-0.6,1.3-1.6,2.5-2.8,3.4l-0.4,1.1c0.1,0.2,0.1,0.4,0.2,0.5c0.4,0.2,0.5,0.5,0.5,0.8c0,0.4-0.3,0.8-0.6,1.1
			c-0.2,0.2-0.2,0.5-0.3,0.8c-0.1,0-0.1,0-0.2,0v0.4c0.1,0,0.2,0,0.3,0c0.1,0.2,0.3,0.3,0.4,0.5l0,0c0.1,0.3,0.2,0.6,0.3,0.9
			c0,0.5-0.1,1.1-0.4,1.5c0.2,0.4,0.4,0.8,0.5,1.2H32l4,4.6l1.1-1.2h6.6l4,4.5c0,0,0,0,0-0.1c1.2-3.4,1.8-7.1,1.8-11.1l0,0l0,0
			c0-7.5-2.4-14.4-6.2-19.4C39.1,7.7,33.9,4.7,28.2,4.7z"/>
		<path class="st1" d="M44.3,49.4c0.1-0.2,0.3-0.4,0.4-0.6v-2.4h-3v2.9L44.3,49.4L44.3,49.4z M41.4,46.2v-2.9h-2.9v2.9H41.4z
			 M41.4,52.7v-2.9h-2.9v2.9H41.4z M38.1,49.4v-2.9h-2.9v2.9H38.1z M38.1,55.9V53h-2.9v2.9H38.1z M34.9,46.2v-2.9H32v2.9H34.9z
			 M34.9,52.7v-2.9H32v2.9H34.9z M32,58.9c1-0.2,2-0.6,2.9-1v-1.6H32V58.9z M31.7,49.4v-2.9h-2.6c-0.1,0.4-0.2,0.8-0.2,1.3
			s0.1,1.1,0.3,1.7L31.7,49.4L31.7,49.4z M31.7,55.9V53h-2.5c-0.1,0.6-0.3,1.2-0.3,1.8c0,0.4,0.1,0.8,0.1,1.2L31.7,55.9L31.7,55.9z
			 M18.8,56.3c2.4,1.6,5,2.6,7.7,2.9c0.3-0.1,0.6-0.2,0.9-0.2c0-0.3,0.1-0.5,0.1-0.7c0-0.7-0.2-1.4-0.4-2.1
			c-0.7,0.2-1.5,0.4-2.3,0.4c-1.3,0-2.5-0.6-3.8-0.6C20.3,55.9,19.5,56.2,18.8,56.3z M12.2,49.6c0.4,0.6,0.8,1.2,1.2,1.7
			c0.3,0.4,0.6,0.7,0.9,1.1c1,0.2,2,0.5,3,0.5c1.3,0,2.5-0.6,3.8-0.6s2.5,0.6,3.8,0.6c0.8,0,1.6-0.3,2.4-0.5
			c0.1-0.4,0.2-0.9,0.2-1.3c0-0.5-0.1-1.1-0.3-1.6c-0.8,0.2-1.6,0.4-2.4,0.4c-1.3,0-2.5-0.6-3.8-0.6s-2.5,0.6-3.8,0.6
			s-2.5-0.6-3.8-0.6C13.1,49.5,12.7,49.5,12.2,49.6z M9.1,43.1c0.4,1.2,0.9,2.3,1.4,3.3c1-0.2,2-0.5,3.1-0.5c1.3,0,2.5,0.6,3.8,0.6
			s2.5-0.6,3.8-0.6s2.5,0.6,3.8,0.6c0.8,0,1.5-0.2,2.3-0.4c0.1-0.6,0.3-1.2,0.3-1.8c0-0.4-0.1-0.8-0.1-1.2L9.1,43.1L9.1,43.1z
			 M46,46.2c0.5-0.9,0.8-1.9,1.2-2.9h-2.3v2.9H46z"/>
		<path class="st2" d="M34.9,55.9V53H32v2.9H34.9z M30.4,59.2c0.4-0.1,0.8-0.1,1.2-0.2v-2.7h-2.5c0.2,0.7,0.4,1.4,0.4,2
			c0,0.3,0,0.6-0.1,0.9H30.4L30.4,59.2z M31.7,52.7v-2.9h-2.4c0.1,0.5,0.2,1,0.2,1.5s-0.1,0.9-0.2,1.4H31.7L31.7,52.7z M31.7,46.2
			v-2.9h-2.3c0.1,0.3,0.1,0.6,0.1,1c0,0.6-0.2,1.3-0.3,1.9H31.7z M41.4,49.4v-2.9h-2.9v2.9H41.4z M38.4,55.8c1-0.8,2-1.6,2.9-2.6V53
			h-2.9V55.8z M35.2,57.7c0.9-0.4,1.8-0.9,2.6-1.5h-2.6V57.7z M38.1,52.7v-2.9h-2.9v2.9H38.1z M38.1,46.2v-2.9h-2.9v2.9H38.1z
			 M44.9,48.3c0.3-0.6,0.6-1.2,1-1.8h-1V48.3z M41.8,52.7c0.4-0.4,0.7-0.9,1.1-1.3c0.4-0.5,0.8-1.1,1.2-1.6h-2.4v2.9
			C41.7,52.7,41.8,52.7,41.8,52.7z M44.6,46.2v-2.9h-3v2.9H44.6z M34.9,49.4v-2.9H32v2.9H34.9z M10.6,46.7c0.5,0.9,0.9,1.8,1.4,2.6
			c0.5-0.1,1-0.2,1.5-0.2c1.3,0,2.5,0.6,3.8,0.6s2.5-0.6,3.8-0.6s2.5,0.6,3.8,0.6c0.8,0,1.5-0.2,2.3-0.4c-0.1-0.5-0.2-1.1-0.2-1.6
			s0.1-0.9,0.2-1.3c-0.7,0.2-1.5,0.4-2.3,0.4c-1.3,0-2.5-0.6-3.8-0.6s-2.5,0.6-3.8,0.6s-2.5-0.6-3.8-0.6
			C12.6,46.2,11.6,46.6,10.6,46.7z M14.7,52.8c1.1,1.3,2.4,2.4,3.7,3.3c0.9-0.2,1.8-0.5,2.7-0.5c1.3,0,2.5,0.6,3.8,0.6
			c0.7,0,1.5-0.2,2.2-0.4C27,55.4,27,55.1,27,54.7c0-0.6,0.2-1.3,0.3-1.9c-0.8,0.2-1.6,0.4-2.4,0.4c-1.3,0-2.5-0.6-3.8-0.6
			s-2.5,0.6-3.8,0.6C16.4,53.3,15.6,53,14.7,52.8z"/>
		<path d="M21,14.2c-0.6,0.5-0.7,0.2-1.4,0.7c-0.6,0.4-0.8,0.9-1.3,1.4c0.3-0.8,0.7-1.6,1.1-2.3c0.5,0,0.8,0,1.4-0.3
			c0.6-0.3,1.2-0.8,1.8-1.6c-0.6,0.4-0.7,0.1-1.5,0.5c-0.6,0.3-1,0.7-1.5,1.2c0.4-0.6,0.8-1.1,1.3-1.6c0.8-0.4,1.5-0.3,2.2-0.9
			c0.6-0.7,0.5-1,1.1-1.5c-1,0.1-1.8,0.3-2.4,0.8c-0.5,0.4-0.7,0.8-0.9,1.4c-0.5,0.5-0.9,1.1-1.4,1.6c0.3-0.6,0.5-1,0.6-1.7
			c0.1-0.8-0.2-0.8-0.1-1.5c-0.5,0.8-0.9,1.6-1,2.3c-0.1,0.6,0,1,0.2,1.4c-0.5,0.7-0.8,1.4-1.1,2.3c0.1-0.6,0.3-1.2,0.2-1.8
			c-0.1-0.8-0.4-0.8-0.5-1.6c-0.4,0.9-0.5,1.7-0.5,2.4c0.1,0.6,0.2,1,0.5,1.4c-0.3,0.8-0.5,1.6-0.6,2.5c0-0.7,0.1-1.3-0.2-1.9
			c-0.3-0.8-0.6-0.8-0.8-1.5c-0.2,1-0.2,1.8,0.1,2.5c0.2,0.6,0.5,1,0.9,1.4c-0.1,0.6-0.1,1.2-0.1,1.8c0,0.3,0,0.5,0,0.7
			c-0.2-0.7-0.2-1.3-0.6-1.9c-0.5-0.7-0.8-0.6-1.2-1.3c0,1,0.2,1.8,0.6,2.4c0.4,0.6,0.7,0.9,1.3,1.2c0.1,0.8,0.2,1.6,0.4,2.4
			c-0.3-0.6-0.4-1.1-1-1.6c-0.7-0.6-1-0.5-1.5-1.1c0.2,1,0.5,1.7,1.1,2.3c0.5,0.5,0.9,0.7,1.5,0.9c0.2,0.8,0.5,1.6,0.9,2.3
			c-0.4-0.5-0.7-1-1.3-1.4c-0.9-0.5-1.1-0.2-1.8-0.7c0.5,0.9,1,1.6,1.6,2c0.6,0.4,1.1,0.5,1.8,0.5c0.4,0.7,0.8,1.4,1.4,2
			c-0.5-0.4-0.8-0.8-1.6-1c-1-0.2-1.2,0.1-2-0.2c0.6,0.8,1.3,1.4,2,1.6c0.7,0.2,1.2,0.2,1.9,0.1c0.5,0.6,1.1,1.1,1.7,1.5
			c-0.5-0.3-1-0.5-1.7-0.5c-1,0-1.2,0.4-2.1,0.3c0.8,0.6,1.6,1,2.4,1c0.8,0,1.3-0.1,2-0.5c0.6,0.4,1.3,0.7,2,1
			c0.1-0.1,0.2-0.3,0.4-0.4c-0.7-0.2-1.4-0.5-2-0.9c0.3-0.6,0.4-1,0.4-1.7c0-0.8-0.4-1.5-1.1-2.3c0.1,0.8-0.3,1-0.3,1.9
			c0,0.8,0.3,1.2,0.6,1.8c-0.7-0.5-1.3-1-1.9-1.6c0.4-0.5,0.6-0.9,0.7-1.5c0.1-0.7-0.1-1.5-0.5-2.4c-0.1,0.8-0.5,0.8-0.6,1.7
			c-0.2,0.7,0.1,1.2,0.3,1.9c-0.5-0.6-1-1.3-1.5-2c0.5-0.4,0.7-0.7,0.9-1.4s0.2-1.5-0.1-2.4C20,25,19.6,25,19.3,25.8
			c-0.3,0.7-0.1,1.2-0.1,1.9c-0.4-0.7-0.7-1.5-1-2.3c0.5-0.3,0.8-0.5,1.1-1.1c0.4-0.6,0.5-1.4,0.4-2.4c-0.4,0.7-0.7,0.6-1.1,1.3
			c-0.4,0.6-0.4,1.2-0.5,1.8c-0.2-0.8-0.4-1.6-0.5-2.5c0.5-0.2,0.8-0.4,1.2-0.9s0.7-1.3,0.8-2.3c-0.5,0.6-0.7,0.5-1.3,1.1
			c-0.5,0.5-0.5,1.1-0.7,1.7c0-0.3,0-0.6,0-0.9c0-0.5,0-1.1,0.1-1.6c0.5-0.1,0.8-0.3,1.3-0.7c0.5-0.5,0.9-1.2,1.2-2.1
			c-0.5,0.5-0.7,0.4-1.4,0.9c-0.5,0.5-0.7,1-1,1.6c0.1-0.9,0.3-1.7,0.6-2.5c0.5,0,0.8-0.2,1.4-0.5C20,15.7,20.5,15.1,21,14.2
			 M33.3,10c0.2-0.2,0.5-0.3,0.8-0.2c0,0,0-0.1,0.1-0.1c0.2-0.3,0.5-0.3,0.8-0.1l0.1,0.1c0.1-0.1,0.1-0.1,0.2-0.2
			c0,0.2,0,0.5,0.1,0.6c0.1,0.2,0.2,0.5,0.2,0.7l0,0h0.1c0,0,0-0.1,0.1-0.1c0.2-0.2,0.6-0.2,0.9,0l0.1,0.1c0.1-0.1,0.2-0.1,0.2-0.1
			c-0.1,0.2-0.1,0.5,0,0.7s0.1,0.5,0.1,0.7l0.1,0.1l0.1-0.1c0.3-0.2,0.7-0.1,0.9,0.2c0,0.1,0.1,0.1,0.1,0.2c0.1,0,0.2-0.1,0.3-0.1
			c-0.1,0.2-0.2,0.5-0.2,0.7c0,0.3,0,0.5-0.1,0.8l0,0c0,0,0,0,0.1,0.1c0,0,0.1,0,0.1-0.1c0.3-0.2,0.7,0,0.9,0.3
			c0,0.1,0.1,0.1,0.1,0.2c0.1,0,0.2-0.1,0.3-0.1c-0.2,0.2-0.3,0.5-0.3,0.7c0,0.3-0.1,0.6-0.2,0.8v0.1c0,0,0.1,0,0.1-0.1
			c0.4-0.1,0.8,0.1,0.9,0.4c0,0.1,0,0.1,0,0.2c0.1,0,0.2,0,0.3,0c-0.2,0.2-0.4,0.5-0.4,0.7c0,0.3-0.2,0.6-0.4,0.8V18l0,0h0.1
			c0.4-0.1,0.8,0.2,0.9,0.6c0,0.1,0,0.1,0,0.2c0.1,0,0.2,0,0.3,0c-0.2,0.2-0.5,0.4-0.5,0.7c-0.1,0.3-0.3,0.6-0.5,0.8v0.1
			c0,0,0,0,0,0.1h0.1c0.4,0,0.8,0.3,0.8,0.8c0,0.1,0,0.1,0,0.2c0.1,0,0.2,0.1,0.3,0.1c-0.3,0.2-0.5,0.4-0.6,0.6
			c-0.1,0.3-0.4,0.5-0.6,0.7V23c0,0,0,0,0,0.1h0.1c0.5,0.1,0.7,0.5,0.7,0.9c0,0.1,0,0.1-0.1,0.2c0.1,0,0.2,0.1,0.3,0.2
			c-0.3,0.1-0.6,0.3-0.8,0.5c-0.2,0.3-0.5,0.5-0.8,0.6c0,0.1-0.1,0.1-0.1,0.2l0,0c0.1,0,0.1,0,0.2,0c0.5,0.2,0.7,0.6,0.5,1.1
			c0,0.1-0.1,0.1-0.1,0.2c0.1,0.1,0.2,0.1,0.3,0.2c-0.4,0.1-0.7,0.2-0.9,0.4c-0.3,0.2-0.6,0.4-0.9,0.5c0,0.1-0.1,0.1-0.1,0.1
			c0,0.1,0,0.1,0,0.1s0.1,0,0.1,0.1c0.4,0.3,0.5,0.8,0.3,1.2c0,0.1-0.1,0.1-0.2,0.2c0.1,0.1,0.2,0.2,0.3,0.3c-0.4,0-0.7,0-1,0.2
			s-0.7,0.3-1.1,0.3c0,0,0,0-0.1,0c0,0.1,0,0.1-0.1,0.2l0.1,0.1c0.4,0.4,0.4,0.9,0,1.3c-0.1,0.1-0.1,0.1-0.2,0.1
			c0.1,0.1,0.2,0.2,0.2,0.4c-0.4-0.1-0.7-0.2-1-0.1c-0.4,0.1-0.7,0.1-1.1,0c-0.2,0.2-0.6,0-0.9-0.3c-0.7,0.5-1.4,0.8-2.2,1.1
			c-0.1-0.1-0.2-0.3-0.4-0.4c0.8-0.3,1.6-0.6,2.3-1.1c-0.1-0.2-0.1-0.4,0-0.6c-0.1-0.4-0.1-0.8,0-1.1s0-0.7-0.1-1
			c0.1,0.1,0.2,0.1,0.4,0.2c0-0.1,0.1-0.1,0.2-0.2c0.4-0.4,0.9-0.3,1.3,0l0.1,0.1c0,0,0.1,0,0.1-0.1c-0.1-0.3-0.1-0.5-0.1-0.8
			s-0.1-0.6-0.3-0.9c0.1,0,0.3,0.1,0.4,0.1c0-0.1,0.1-0.2,0.1-0.2c0.3-0.4,0.8-0.5,1.2-0.3l0.1,0.1c0,0,0,0,0.1-0.1
			c-0.1-0.2-0.2-0.5-0.3-0.7c0-0.3-0.2-0.6-0.5-0.8c0.1,0,0.3,0,0.4,0c0-0.1,0-0.2,0-0.2c0.2-0.4,0.6-0.7,1.1-0.5c0,0,0.1,0,0.1,0.1
			c0,0,0-0.1,0.1-0.1c-0.2-0.2-0.3-0.4-0.3-0.6c-0.1-0.3-0.3-0.5-0.6-0.7c0.1,0,0.2,0,0.4,0c0-0.1,0-0.1,0-0.2
			c0.1-0.5,0.5-0.7,0.9-0.7h0.1c0,0,0,0,0-0.1c-0.2-0.1-0.3-0.3-0.4-0.5c-0.1-0.2-0.4-0.4-0.7-0.6c0.1,0,0.2-0.1,0.3-0.1
			c0-0.1,0-0.1,0-0.2c0-0.4,0.4-0.8,0.8-0.8h0.1l0,0c-0.2-0.1-0.4-0.3-0.5-0.4c-0.2-0.2-0.4-0.4-0.7-0.5c0.1-0.1,0.2-0.1,0.3-0.1
			c0-0.1-0.1-0.1-0.1-0.2c-0.1-0.4,0.2-0.8,0.6-0.9h0.1l0,0c-0.2-0.1-0.4-0.2-0.5-0.3c-0.2-0.2-0.5-0.3-0.7-0.3
			c0.1-0.1,0.2-0.1,0.3-0.2c0-0.1-0.1-0.1-0.1-0.2c-0.1-0.4,0.1-0.8,0.4-0.9h0.1c0,0,0,0,0-0.1c-0.2,0-0.4-0.1-0.5-0.2
			c-0.2-0.1-0.5-0.2-0.7-0.2c0.1-0.1,0.1-0.1,0.2-0.2c0,0-0.1-0.1-0.1-0.2c-0.2-0.3-0.1-0.7,0.3-0.9h0.1l0,0c-0.2,0-0.4-0.1-0.5-0.2
			c-0.2-0.1-0.5-0.1-0.7-0.1c0.1-0.1,0.1-0.2,0.2-0.2L35.8,14c-0.2-0.3-0.2-0.7,0.1-0.9c0,0,0.1,0,0.1-0.1l0,0c-0.2,0-0.4,0-0.6-0.1
			c-0.2-0.1-0.5,0-0.7,0c0-0.1,0.1-0.2,0.1-0.2c-0.1,0-0.1-0.1-0.1-0.1c-0.3-0.3-0.3-0.6,0-0.9l0.1-0.1c0,0,0,0,0-0.1
			c-0.2,0-0.4,0-0.5,0c-0.2,0-0.5,0-0.6,0.1c0-0.1,0.1-0.2,0.1-0.2c-0.1,0-0.1,0-0.1-0.1c-0.3-0.2-0.3-0.6-0.2-0.8
			c0,0,0-0.1,0.1-0.1C33.2,10.5,33.1,10.2,33.3,10z M28.2,4.7L28.2,4.7L28.2,4.7c-5.7,0-11,3-14.7,8c-3.8,5-6.2,11.8-6.2,19.4l0,0
			l0,0c0,3.8,0.6,7.5,1.7,10.8c0,0.1,0.1,0.2,0.1,0.4c0.4,1.2,0.9,2.3,1.4,3.3c1-0.2,2-0.5,3.1-0.5c1.3,0,2.5,0.6,3.8,0.6
			s2.5-0.6,3.8-0.6s2.5,0.6,3.8,0.6c0.8,0,1.5-0.2,2.3-0.4c0.1-0.6,0.3-1.2,0.3-1.8c0-0.4-0.1-0.8-0.1-1.2H9.1l4-4.5h6.6l1.1,1.2
			l4-4.6h2.1c0.1-0.4,0.2-0.8,0.4-1.2c-0.4-0.4-0.5-1-0.5-1.5s0.2-1,0.5-1.4c0.1,0,0.2,0,0.2,0v-0.4c-0.1,0-0.2,0-0.3,0
			c-0.1-0.1-0.1-0.2-0.2-0.3c-0.5-0.1-1.1-0.4-1.1-1c0-0.4,0.3-0.7,0.5-1v-0.3c-0.9,0.1-1.5-0.9-1.4-1.7c0.1-1.2,1.5-1.9,2.4-0.7
			c0.6-0.3,1-0.7,1.3-1.3c0.4-0.7,0.5-1.8,0.4-3.2C29,20.2,28.6,19,28,18c-1.1-1.7-2.8-3.3-3.4-5.6c0.6-0.1,1.2-0.1,1.8,0.1
			c-0.6-2.3-0.3-4.2,1.3-5.9c0,2.6,0.5,3.6,2.2,5.3c0.9-0.3,1.8,0.1,1.9,1.1c0.6,0.1,1,0.6,1.1,1.2c0.6,0.2,1,0.9,0.8,1.5
			c0.5,0.5,0.6,1.2,0.2,1.7c0.5,0.6,0.5,1.6-0.2,2c0,1.3-0.3,2.5-0.8,3.6c-0.6,1.3-1.6,2.5-2.8,3.4l-0.4,1.1
			c0.1,0.2,0.1,0.4,0.2,0.5c0.4,0.2,0.5,0.5,0.5,0.8c0,0.4-0.3,0.8-0.6,1.1c-0.2,0.2-0.2,0.5-0.3,0.8c-0.1,0-0.1,0-0.2,0v0.4
			c0.1,0,0.2,0,0.3,0c0.1,0.2,0.3,0.3,0.4,0.5l0,0c0.1,0.3,0.2,0.6,0.3,0.9c0,0.5-0.1,1.1-0.4,1.5c0.2,0.4,0.4,0.8,0.5,1.2H32l4,4.6
			l1.1-1.2h6.6l4,4.5c0,0,0,0,0-0.1c1.2-3.4,1.8-7.1,1.8-11.1l0,0l0,0c0-7.5-2.4-14.4-6.2-19.4C39.1,7.7,33.9,4.7,28.2,4.7z
			 M44.3,49.4c0.1-0.2,0.3-0.4,0.4-0.6v-2.4h-3v2.9L44.3,49.4L44.3,49.4z M41.4,46.2v-2.9h-2.9v2.9H41.4z M41.4,52.7v-2.9h-2.9v2.9
			H41.4z M38.1,49.4v-2.9h-2.9v2.9H38.1z M38.1,55.9V53h-2.9v2.9H38.1z M34.9,46.2v-2.9H32v2.9H34.9z M34.9,52.7v-2.9H32v2.9H34.9z
			 M32,58.9c1-0.2,2-0.6,2.9-1v-1.6H32V58.9z M31.7,49.4v-2.9h-2.6c-0.1,0.4-0.2,0.8-0.2,1.3s0.1,1.1,0.3,1.7L31.7,49.4L31.7,49.4z
			 M31.7,55.9V53h-2.5c-0.1,0.6-0.3,1.2-0.3,1.8c0,0.4,0.1,0.8,0.1,1.2L31.7,55.9L31.7,55.9z M18.8,56.3c2.4,1.6,5,2.6,7.7,2.9
			c0.3-0.1,0.6-0.2,0.9-0.2c0-0.3,0.1-0.5,0.1-0.7c0-0.7-0.2-1.4-0.4-2.1c-0.7,0.2-1.5,0.4-2.3,0.4c-1.3,0-2.5-0.6-3.8-0.6
			C20.3,55.9,19.5,56.2,18.8,56.3z M12.2,49.6c0.4,0.6,0.8,1.2,1.2,1.7c0.3,0.4,0.6,0.7,0.9,1.1c1,0.2,2,0.5,3,0.5
			c1.3,0,2.5-0.6,3.8-0.6s2.5,0.6,3.8,0.6c0.8,0,1.6-0.3,2.4-0.5c0.1-0.4,0.2-0.9,0.2-1.3c0-0.5-0.1-1.1-0.3-1.6
			c-0.8,0.2-1.6,0.4-2.4,0.4c-1.3,0-2.5-0.6-3.8-0.6s-2.5,0.6-3.8,0.6s-2.5-0.6-3.8-0.6C13.1,49.5,12.7,49.5,12.2,49.6z M46,46.2
			c0.5-0.9,0.8-1.9,1.2-2.9h-2.3v2.9H46z M34.9,55.9V53H32v2.9H34.9z M30.4,59.2c0.4-0.1,0.8-0.1,1.2-0.2v-2.7h-2.5
			c0.2,0.7,0.4,1.4,0.4,2c0,0.3,0,0.6-0.1,0.9H30.4L30.4,59.2z M31.7,52.7v-2.9h-2.4c0.1,0.5,0.2,1,0.2,1.5s-0.1,0.9-0.2,1.4H31.7
			L31.7,52.7z M31.7,46.2v-2.9h-2.3c0.1,0.3,0.1,0.6,0.1,1c0,0.6-0.2,1.3-0.3,1.9H31.7z M41.4,49.4v-2.9h-2.9v2.9H41.4z M38.4,55.8
			c1-0.8,2-1.6,2.9-2.6V53h-2.9V55.8z M35.2,57.7c0.9-0.4,1.8-0.9,2.6-1.5h-2.6V57.7z M38.1,52.7v-2.9h-2.9v2.9H38.1z M38.1,46.2
			v-2.9h-2.9v2.9H38.1z M44.9,48.3c0.3-0.6,0.6-1.2,1-1.8h-1V48.3z M41.8,52.7c0.4-0.4,0.7-0.9,1.1-1.3c0.4-0.5,0.8-1.1,1.2-1.6
			h-2.4v2.9C41.7,52.7,41.8,52.7,41.8,52.7z M44.6,46.2v-2.9h-3v2.9H44.6z M34.9,49.4v-2.9H32v2.9H34.9z M10.6,46.7
			c0.5,0.9,0.9,1.8,1.4,2.6c0.5-0.1,1-0.2,1.5-0.2c1.3,0,2.5,0.6,3.8,0.6s2.5-0.6,3.8-0.6s2.5,0.6,3.8,0.6c0.8,0,1.5-0.2,2.3-0.4
			c-0.1-0.5-0.2-1.1-0.2-1.6s0.1-0.9,0.2-1.3c-0.7,0.2-1.5,0.4-2.3,0.4c-1.3,0-2.5-0.6-3.8-0.6s-2.5,0.6-3.8,0.6s-2.5-0.6-3.8-0.6
			C12.6,46.2,11.6,46.6,10.6,46.7z M14.7,52.8c1.1,1.3,2.4,2.4,3.7,3.3c0.9-0.2,1.8-0.5,2.7-0.5c1.3,0,2.5,0.6,3.8,0.6
			c0.7,0,1.5-0.2,2.2-0.4C27,55.4,27,55.1,27,54.7c0-0.6,0.2-1.3,0.3-1.9c-0.8,0.2-1.6,0.4-2.4,0.4c-1.3,0-2.5-0.6-3.8-0.6
			s-2.5,0.6-3.8,0.6C16.4,53.3,15.6,53,14.7,52.8z M3.4,40.7c0,0.5-0.2,0.6-0.4,0.8c-1.2,1.2-2.7,3.4-1.9,4.8
			c0.5,0.9,1.5,1.3,2.5,0.6c0.8-0.5,1.3-1.4,1.5-1.9c0.1,0.6-0.6,1.5-1.5,2.4c-0.5,0.5-0.5,1.3-0.1,1.8c0.3,0.4,1,0.6,1.3,0.3
			c0.6-0.6,1.5-1.8,1.7-2.5c0.1,0.9-0.7,1.7-1.3,2.4c-0.4,0.5-0.6,0.9-0.4,1.3c1,2,2.2,3.8,3.6,5.5c5.4,6.7,12.6,10.1,19.7,10.1
			s14.5-3.3,19.8-10c1.4-1.7,2.6-3.6,3.6-5.5c0.2-0.4,0-0.8-0.4-1.3c-0.5-0.7-1.4-1.5-1.3-2.4c0.2,0.7,1.1,1.9,1.7,2.5
			c0.3,0.3,1,0.2,1.3-0.3c0.4-0.5,0.4-1.3-0.1-1.8c-0.9-0.9-1.6-1.8-1.5-2.4c0.2,0.5,0.7,1.4,1.5,1.9c1,0.6,2,0.2,2.5-0.6
			c0.7-1.4-0.8-3.7-1.9-4.8c-0.2-0.2-0.4-0.3-0.4-0.8c-0.4,0.7,0.1,1.3,0.3,1.5c0.3,0.5,0.1,1.2-0.1,1.4c-0.4,0.4-1.7-0.3-2.8,0
			c-0.5,0.1-1.2,0.4-1.4,0.9c-0.1,0.3,0,0.8,0.1,1.1s-0.2,0.6-0.4,0.6c-1,2.4-2.4,4.8-4,6.9c-4.5,5.9-10.5,8.7-16.6,8.7
			s-12-2.8-16.6-8.7c-1.6-2.1-3-4.5-4-6.9c-0.2,0-0.5-0.3-0.4-0.6s0.2-0.8,0.1-1.1c-0.2-0.5-0.9-0.8-1.4-0.9c-1.1-0.3-2.4,0.3-2.8,0
			c-0.2-0.2-0.4-0.9-0.1-1.4C3.2,41.9,3.7,41.4,3.4,40.7z M48.9,53.4l-2.3-1.3l0.3-0.5l0.8,0.5l0.5-0.9l-0.8-0.5l0.3-0.5l2.3,1.3
			L49.7,52l-1-0.6l-0.5,0.9l1,0.6L48.9,53.4z M48.2,54.5L46.1,53l0.3-0.5l2.1,1.5L48.2,54.5z M46.2,55.6l0.7,0.6l-0.3,0.4l-2-1.6
			l0.7-0.9c0.2-0.2,0.4-0.3,0.5-0.4s0.4,0.1,0.6,0.2c0.2,0.2,0.3,0.4,0.4,0.5c0,0.2,0,0.4-0.2,0.6L46.2,55.6z M45.8,55.3l0.3-0.4
			c0.1-0.1,0.1-0.2,0.1-0.3s-0.1-0.2-0.2-0.3s-0.2-0.1-0.3-0.1c-0.1,0-0.2,0.1-0.3,0.2l-0.3,0.4L45.8,55.3z M43.3,56.3l0.4-0.5
			l2.5,1.1l-0.4,0.4l-0.5-0.2l-0.7,0.7l0.3,0.5l-0.4,0.4L43.3,56.3z M43.9,56.4l0.5,1l0.5-0.5L43.9,56.4z M42.7,60.3l-1.7-2l0.9-0.8
			c0.2-0.2,0.4-0.3,0.6-0.3s0.4,0.1,0.5,0.3c0.1,0.1,0.2,0.2,0.2,0.4c0,0.1,0,0.2-0.1,0.4c0.1,0,0.2-0.1,0.3,0
			c0.1,0,0.2,0.1,0.3,0.2l0.2,0.2l0,0c0.1,0.1,0.2,0.2,0.3,0.2l0.1,0.1l-0.5,0.4c0,0-0.1,0-0.1-0.1l-0.1-0.1L43.4,59
			c-0.1-0.1-0.2-0.2-0.3-0.2c-0.1,0-0.2,0-0.3,0.1l-0.4,0.4l0.6,0.8L42.7,60.3z M42.1,58.9l0.5-0.4c0.1-0.1,0.2-0.2,0.2-0.3
			s0-0.2-0.1-0.3s-0.2-0.1-0.2-0.1c-0.1,0-0.2,0-0.3,0.1l-0.5,0.4L42.1,58.9z M39.4,62.5L38,60.3l0.5-0.3l0.5,0.8l0.9-0.6l-0.5-0.8
			l0.5-0.3l1.4,2.2l-0.5,0.3l-0.6-1l-0.9,0.6l0.6,1L39.4,62.5z M37.2,63.6l-1.1-2.3l1.7-0.8l0.2,0.4l-1.2,0.6l0.3,0.5l1.1-0.5
			l0.2,0.4l-1.1,0.5l0.3,0.6l1.3-0.6l0.2,0.4L37.2,63.6z M34.9,63.5l0.3,0.9l-0.5,0.2l-0.9-2.4l1.1-0.4c0.3-0.1,0.5-0.1,0.6,0
			c0.2,0.1,0.3,0.3,0.4,0.5s0.1,0.5,0,0.6c-0.1,0.2-0.2,0.3-0.5,0.4L34.9,63.5z M34.8,63l0.5-0.2c0.1,0,0.2-0.1,0.3-0.2
			c0-0.1,0-0.2,0-0.3c0-0.1-0.1-0.2-0.2-0.2c-0.1,0-0.2,0-0.3,0l-0.5,0.2L34.8,63z M32.3,65.1l-0.6-2.5l1.8-0.4l0.1,0.5L32.3,63
			l0.1,0.5l1.2-0.3l0.1,0.4l-1.2,0.3l0.2,0.6l1.4-0.3l0.1,0.5L32.3,65.1z M29.5,65.5l-0.3-2.6l1.3-0.1c0.3,0,0.5,0,0.6,0.1
			c0.2,0.1,0.2,0.3,0.3,0.5c0,0.2,0,0.3-0.1,0.4S31.2,64,31,64.1c0.1,0,0.2,0.1,0.3,0.2s0.1,0.2,0.1,0.4V65l0,0
			c0,0.2,0.1,0.3,0.1,0.3v0.1l-0.6,0.1c0,0,0-0.1-0.1-0.1c0-0.1,0-0.1,0-0.2v-0.3c0-0.2-0.1-0.3-0.1-0.3c-0.1-0.1-0.2-0.1-0.3-0.1
			l-0.5,0.1l0.1,1L29.5,65.5z M29.9,64l0.6-0.1c0.1,0,0.2-0.1,0.3-0.1s0.1-0.2,0.1-0.3c0-0.1-0.1-0.2-0.1-0.3
			c-0.1-0.1-0.2-0.1-0.3-0.1l-0.6,0.1V64z M25.6,65.4l0.2-2.6h0.5l-0.1,1l1.1,0.1l0.1-1h0.5l-0.2,2.6h-0.5l0.1-1.2l-1.1-0.1
			l-0.1,1.2H25.6z M24.1,62.5l0.6,0.1l0.4,2.7l-0.5-0.1l-0.1-0.5l-1-0.2L23.2,65l-0.5-0.1L24.1,62.5z M24.3,63l-0.5,1l0.7,0.1
			L24.3,63z M21.5,63.5l-0.3,0.9l-0.5-0.2l0.8-2.4l1.1,0.4c0.3,0.1,0.4,0.2,0.5,0.4s0.1,0.4,0,0.6c-0.1,0.3-0.2,0.4-0.4,0.5
			s-0.4,0.1-0.6,0L21.5,63.5z M21.7,63.1l0.5,0.2c0.1,0,0.2,0,0.3,0s0.1-0.1,0.2-0.3c0-0.1,0-0.2,0-0.3s-0.1-0.1-0.2-0.2l-0.6-0.1
			L21.7,63.1z M19.5,63.7l1-2.4l0.5,0.2l-1,2.4L19.5,63.7z M17,62.5l1.2-2.3l1.1,0.6c0.3,0.1,0.4,0.3,0.5,0.5s0,0.4-0.1,0.6
			c-0.1,0.1-0.2,0.2-0.3,0.3c-0.1,0.1-0.2,0.1-0.4,0.1c0.1,0.1,0.1,0.2,0.1,0.3c0,0.1,0,0.2-0.1,0.4l-0.1,0.3l0,0
			c-0.1,0.1-0.1,0.2,0,0.3v0.1l-0.5-0.3v-0.1c0-0.1,0-0.1,0.1-0.2l0.1-0.3c0.1-0.1,0.1-0.3,0.1-0.3c0-0.1-0.1-0.2-0.2-0.2L18,62
			l-0.5,0.9L17,62.5z M18.2,61.5l0.5,0.3c0.1,0.1,0.2,0.1,0.3,0.1s0.2-0.1,0.2-0.2c0.1-0.1,0.1-0.2,0-0.3s-0.1-0.2-0.2-0.2l-0.6-0.3
			L18.2,61.5z M13.8,60.3l1.5-2.1l0.4,0.3l-0.6,0.8l0.9,0.6l0.6-0.8l0.4,0.3l-1.5,2.2l-0.4-0.3l0.7-0.9l-0.9-0.7l-0.7,0.9L13.8,60.3
			z M14.1,57.2l0.5,0.4l-1.1,2.5l-0.4-0.4l0.2-0.5l-0.7-0.7l-0.5,0.3l-0.4-0.4L14.1,57.2z M13.9,57.7l-1,0.5l0.5,0.5L13.9,57.7z
			 M9.5,56.2l1.9-1.7l0.5,0.6l-1,1.6l1.8-0.9l0.5,0.6l-1.9,1.7l-0.4-0.4l1.5-1.4l-1.9,1l-0.4-0.4l1.2-1.8l-1.4,1.4L9.5,56.2z
			 M8,54.1l2.1-1.5l1.1,1.5l-0.4,0.3L10,53.3l-0.5,0.3l0.7,1l-0.3,0.2l-0.7-1l-0.5,0.4l0.8,1.1l-0.4,0.3L8,54.1z M7.6,53.1
			c-0.2,0-0.3-0.1-0.4-0.1c-0.1-0.1-0.2-0.2-0.3-0.3c-0.2-0.3-0.2-0.6-0.1-0.9c0.1-0.3,0.3-0.6,0.7-0.8c0.4-0.2,0.7-0.3,1-0.2
			s0.6,0.3,0.8,0.6s0.2,0.5,0.2,0.8s-0.2,0.5-0.4,0.6l-0.3-0.5C8.9,52.2,9,52.1,9,52s0-0.3-0.1-0.4c-0.1-0.2-0.3-0.3-0.5-0.3
			s-0.4,0-0.7,0.2c-0.3,0.1-0.4,0.3-0.5,0.5s-0.1,0.4,0.1,0.6c0.1,0.2,0.2,0.3,0.4,0.3c0.1,0,0.3,0,0.5,0l-0.3-0.5l0.4-0.2l0.5,0.9
			l-1.3,0.5l-0.2-0.3L7.6,53.1z M27.6,59.3c0.2,0,0.4,0,0.6,0l0,0l0,0c0.3,0,0.6,0,0.9,0c0.1-0.4,0.1-0.7,0.1-1
			c0-1.2-0.5-2.3-0.5-3.5s0.5-2.3,0.5-3.5s-0.5-2.3-0.5-3.5s0.5-2.3,0.5-3.5c0-0.4-0.1-0.8-0.1-1.2h-1.5c0.1,0.4,0.1,0.8,0.1,1.2
			c0,1.2-0.5,2.3-0.5,3.5s0.5,2.3,0.5,3.5s-0.5,2.3-0.5,3.5s0.5,2.3,0.5,3.5C27.7,58.6,27.7,58.9,27.6,59.3z M27.1,37.7
			c-0.7,0.5-0.9,1.4-0.5,1.9s1.3,0.5,2,0c0.6-0.5,1.3-1.8,1.2-3.4c-0.1-0.8-0.4-1.8-0.7-2.2c0.4-0.3,0.5-0.8,0.5-1.4
			c0-0.5-0.2-0.8-0.4-1.1l-1.6,0.1c-0.2,0.3-0.4,0.7-0.3,1.2c0,0.5,0.3,1,0.6,1.3c-0.4,0.4-0.5,1.1-0.5,1.9c0,0.6,0.2,1.1,0.4,1.5
			C27.5,37.5,27.3,37.6,27.1,37.7z M27.3,7.3c-1.5,2.3-0.8,4.3-0.4,5.7c-0.6-0.4-1.3-0.5-1.8-0.4c1.5,4,4.3,4.8,4.4,8.7
			c0.1,2.9-0.6,4.4-2.2,5c-0.2-0.4-0.5-0.7-0.9-0.7c-0.5,0-1,0.5-0.9,1.2c0,0.6,0.5,1.2,1,1.1c0.2,0,0.4-0.1,0.5-0.2
			c-0.1,0.3-0.1,0.6-0.1,1l0,0c-0.4,0.3-0.6,0.6-0.5,1c0.1,0.3,0.5,0.5,0.9,0.5c0,0.1,0.1,0.2,0.2,0.2l1.6-0.1
			c0.1-0.2,0.2-0.5,0.3-0.7c0.4-0.3,0.6-0.6,0.5-0.9c-0.1-0.2-0.2-0.3-0.5-0.4c0-0.3-0.1-0.6-0.2-0.8l0.5-1.4c2.5-1.8,3.6-4.4,3.6-7
			c0.4-0.1,0.6-0.5,0.6-0.9s-0.2-0.7-0.5-0.8c0.3-0.2,0.4-0.5,0.4-0.8c0-0.4-0.2-0.7-0.5-0.8c0.1-0.1,0.1-0.3,0.1-0.5
			c0-0.5-0.4-0.9-0.9-0.9c0-0.1,0-0.1,0-0.2c0-0.5-0.5-0.9-1-0.9h-0.1c0-0.1,0-0.2,0-0.3c0-0.5-0.5-0.9-1-0.9
			c-0.2,0-0.4,0.1-0.6,0.2C28.4,11,27.2,9.7,27.3,7.3z M32.8,17.8c-0.2,0-0.4,0.2-0.4,0.4c0,0.2,0.2,0.4,0.5,0.4
			c0.2,0,0.4-0.2,0.4-0.5C33.3,17.9,33.1,17.8,32.8,17.8z M30.3,12.6c-0.2,0-0.4,0.2-0.4,0.4s0.2,0.4,0.5,0.4c0.2,0,0.4-0.2,0.4-0.5
			C30.7,12.7,30.5,12.6,30.3,12.6z M31.4,13.8c-0.2,0-0.4,0.2-0.4,0.4c0,0.2,0.2,0.4,0.5,0.4c0.2,0,0.4-0.2,0.4-0.5
			C31.8,13.9,31.6,13.7,31.4,13.8z M32.3,14.9c-0.2,0-0.4,0.2-0.4,0.4s0.2,0.4,0.5,0.4c0.2,0,0.4-0.2,0.4-0.5
			C32.7,15,32.5,14.9,32.3,14.9z M32.7,16.1c-0.2,0-0.4,0.2-0.4,0.4c0,0.2,0.2,0.4,0.5,0.4c0.2,0,0.4-0.2,0.4-0.5
			C33.1,16.3,32.9,16.1,32.7,16.1z M44.4,11.2C40,5.5,34.1,2.6,28.2,2.6S16.4,5.5,12,11.3S5.3,24.5,5.3,32c0,4.1,0.6,8.1,2,11.9
			c0.2,0.1,0.3,0.3,0.4,0.5c0.1,0.2,0.1,0.5,0.1,0.8c1.1,2.7,2.5,5.3,4.2,7.5c4.4,5.8,10.3,8.7,16.2,8.7s11.8-2.9,16.2-8.7
			c1.8-2.3,3.2-4.8,4.2-7.5c0-0.3,0-0.6,0.1-0.8s0.2-0.4,0.4-0.5c1.3-3.8,2-7.8,2-11.9C51.1,24.5,48.9,17,44.4,11.2z M13.1,12.1
			C17.3,6.7,22.7,4,28.2,4s10.9,2.6,15.1,8.1c4.2,5.4,6.4,12.7,6.4,19.9s-2.2,14.4-6.4,19.9S33.7,60,28.2,60s-10.9-2.6-15.1-8.1
			C8.9,46.5,6.7,39.2,6.7,32C6.7,24.8,8.9,17.6,13.1,12.1z M33.6,31.5c-0.1,0.2,0,0.5,0.2,0.8s0.6,0.4,0.8,0.2
			c0.4,0.1,0.8,0.1,1.1,0s0.5,0,0.8,0c-0.2-0.4-0.6-0.8-0.9-1c-0.1,0.1-0.2,0.2-0.3,0.3c0.3-0.4,0.4-0.8,0.3-1.3
			c-0.5-0.1-0.9,0-1.3,0.3c0.1-0.1,0.2-0.2,0.3-0.3c-0.2-0.4-0.6-0.7-1-1c0.1,0.3,0.1,0.5,0,0.8C33.5,30.7,33.5,31.1,33.6,31.5z
			 M34.6,11.7c-0.1-0.2,0-0.5,0.1-0.6c0.2-0.2,0.4-0.2,0.6-0.2c0-0.2-0.1-0.5-0.2-0.6C35,10.1,35,10,35,9.8
			c-0.2,0.2-0.4,0.4-0.5,0.7c0.1,0,0.2,0.1,0.3,0.2c-0.3-0.2-0.6-0.2-0.9-0.1c0,0.3,0.1,0.6,0.4,0.8c-0.1-0.1-0.2-0.1-0.2-0.2
			c-0.2,0.2-0.4,0.4-0.5,0.7c0.2-0.1,0.3-0.1,0.5-0.1C34.3,11.7,34.4,11.7,34.6,11.7z M35.9,13.1c-0.1-0.3,0-0.5,0.3-0.7
			c0.2-0.1,0.4-0.2,0.6-0.1c0-0.2,0-0.5-0.1-0.6c-0.1-0.2,0-0.3,0-0.5c-0.3,0.2-0.5,0.4-0.6,0.6c0.1,0.1,0.2,0.1,0.2,0.2
			c-0.3-0.2-0.6-0.3-0.9-0.3c-0.1,0.3,0,0.6,0.3,0.9c-0.1-0.1-0.1-0.1-0.2-0.2c-0.3,0.2-0.5,0.4-0.6,0.6c0.2,0,0.4-0.1,0.5,0
			C35.5,13,35.7,13.1,35.9,13.1z M36.9,14.6c0-0.3,0.1-0.5,0.4-0.7c0.2-0.1,0.5-0.1,0.7,0c0.1-0.2,0.1-0.5,0.1-0.7s0-0.3,0.1-0.6
			c-0.3,0.1-0.6,0.3-0.8,0.5c0.1,0.1,0.2,0.2,0.2,0.3c-0.2-0.3-0.5-0.4-0.9-0.4c-0.1,0.3-0.1,0.6,0.1,1c-0.1-0.1-0.1-0.2-0.2-0.3
			c-0.3,0.1-0.5,0.3-0.7,0.6c0.3,0,0.4,0,0.6,0.1C36.6,14.6,36.7,14.6,36.9,14.6z M38.2,18.4c0.1-0.3,0.3-0.5,0.6-0.6
			s0.6,0.1,0.7,0.3c0.2-0.2,0.3-0.5,0.3-0.7s0.1-0.4,0.3-0.6c-0.4,0-0.7,0.2-1,0.4c0.1,0.1,0.1,0.2,0.1,0.3
			c-0.2-0.4-0.5-0.6-0.8-0.7c-0.2,0.3-0.3,0.7-0.2,1c0-0.1-0.1-0.2-0.1-0.3c-0.3,0-0.7,0.2-1,0.4c0.3,0.1,0.4,0.1,0.6,0.3
			C38,18.2,38.1,18.3,38.2,18.4z M37.7,16.4c0-0.3,0.2-0.5,0.5-0.6s0.6,0,0.8,0.2c0.1-0.2,0.2-0.5,0.2-0.7s0.1-0.4,0.2-0.6
			c-0.4,0.1-0.6,0.2-0.9,0.5c0.1,0.1,0.1,0.2,0.2,0.3c-0.2-0.3-0.5-0.5-0.8-0.5c-0.2,0.3-0.2,0.7,0,1c-0.1-0.1-0.1-0.2-0.1-0.3
			c-0.3,0.1-0.6,0.3-0.9,0.5c0.3,0,0.4,0,0.6,0.2C37.4,16.3,37.5,16.4,37.7,16.4z M38.5,20.6c0.1-0.3,0.4-0.5,0.7-0.5
			c0.3,0,0.5,0.2,0.7,0.4c0.2-0.2,0.4-0.5,0.4-0.7c0.1-0.3,0.2-0.3,0.4-0.5c-0.4,0-0.8,0-1.1,0.2c0,0.1,0.1,0.2,0.1,0.4
			c-0.1-0.4-0.4-0.7-0.7-0.8c-0.3,0.3-0.4,0.6-0.4,1c0-0.1,0-0.2,0-0.4c-0.4,0-0.7,0.1-1.1,0.2c0.3,0.1,0.4,0.2,0.5,0.4
			C38.2,20.3,38.4,20.4,38.5,20.6z M38.4,22.7c0.2-0.3,0.5-0.4,0.8-0.3c0.3,0,0.5,0.3,0.7,0.5c0.3-0.2,0.5-0.4,0.6-0.6
			s0.3-0.3,0.5-0.5c-0.4-0.1-0.8-0.1-1.2,0c0,0.1,0,0.3,0,0.4c0-0.4-0.3-0.8-0.6-1c-0.3,0.2-0.5,0.6-0.5,1c0-0.1,0-0.3,0-0.4
			c-0.4-0.1-0.8-0.1-1.2,0c0.2,0.2,0.4,0.2,0.5,0.5C38.1,22.5,38.3,22.6,38.4,22.7z M37.9,25c0.3-0.2,0.6-0.3,0.9-0.2
			c0.3,0.1,0.5,0.4,0.6,0.7l0,0c0.3-0.1,0.6-0.4,0.7-0.6c0.2-0.2,0.3-0.3,0.6-0.4c-0.4-0.2-0.8-0.3-1.2-0.2c0,0.1,0,0.3,0,0.4
			c0-0.4-0.1-0.8-0.4-1.1c-0.4,0.2-0.6,0.5-0.7,0.9c0-0.1,0-0.3,0.1-0.4c-0.4-0.1-0.8-0.2-1.2-0.2c0.2,0.2,0.4,0.3,0.4,0.6
			C37.7,24.7,37.8,24.8,37.9,25z M37,27.3c0.3-0.2,0.6-0.2,1,0c0.3,0.2,0.4,0.4,0.5,0.7l0,0c0.3-0.1,0.7-0.3,0.9-0.5
			s0.4-0.2,0.7-0.3c-0.4-0.3-0.8-0.4-1.2-0.5c0,0.1-0.1,0.3-0.1,0.4c0.1-0.5,0-0.9-0.3-1.2c-0.4,0.1-0.8,0.4-0.9,0.8
			c0-0.1,0.1-0.3,0.2-0.4c-0.4-0.2-0.8-0.4-1.2-0.4c0.2,0.3,0.3,0.4,0.4,0.6C36.8,26.9,36.8,27.1,37,27.3z M35.5,29.4
			c0.3-0.1,0.7,0,0.9,0.3c0.2,0.2,0.3,0.5,0.3,0.8c0,0,0,0,0.1-0.1c0.4,0,0.7-0.1,1-0.3c0.2-0.2,0.4-0.1,0.7-0.2
			c-0.3-0.3-0.7-0.6-1.1-0.7c0,0.1-0.1,0.3-0.2,0.4c0.2-0.4,0.2-0.9,0-1.3c-0.4,0-0.9,0.2-1.1,0.6c0.1-0.1,0.2-0.2,0.2-0.3
			c-0.3-0.3-0.7-0.5-1.1-0.7c0.1,0.3,0.2,0.5,0.2,0.7C35.4,28.9,35.4,29.2,35.5,29.4z M19.8,10.6c0,0.5,0.1,0.6,0.1,1.2
			c-0.1,0.7-0.4,1.1-0.6,1.8c-0.2-0.4-0.2-0.7-0.1-1.3C19.2,11.8,19.5,11.2,19.8,10.6z M23.7,9.8c-0.4,0.4-0.4,0.7-0.9,1.3
			s-1.1,0.5-1.8,0.8c0.2-0.6,0.4-0.9,0.9-1.3C22.4,10.1,23,9.9,23.7,9.8z M22.7,28.7c0.5,0.6,0.7,1.2,0.7,1.8s-0.1,1-0.4,1.6
			c-0.3-0.7-0.7-1.1-0.7-1.9C22.5,29.4,22.7,29.2,22.7,28.7z M19,32.1c0.6,0,0.8-0.3,1.6-0.3s1.3,0.4,2,0.7c-0.6,0.3-1,0.4-1.7,0.4
			C20.2,32.8,19.6,32.5,19,32.1z M21.2,26.9c0.3,0.7,0.4,1.3,0.3,1.9s-0.3,1-0.6,1.4c-0.2-0.7-0.5-1.2-0.3-2
			C20.8,27.5,21,27.4,21.2,26.9z M17,29.2c0.5,0.1,0.8-0.1,1.6,0.1c0.8,0.2,1.1,0.7,1.7,1.1c-0.6,0.1-1.1,0.1-1.7-0.1
			C18,30.2,17.5,29.8,17,29.2z M20,24.7c0.2,0.7,0.2,1.4,0,1.9c-0.2,0.6-0.4,0.9-0.8,1.3c0-0.7-0.2-1.3,0.1-2
			C19.5,25.2,19.8,25.1,20,24.7z M15.8,26c0.5,0.2,0.8,0.1,1.5,0.5s0.9,0.9,1.4,1.5c-0.6,0-1-0.1-1.5-0.5
			C16.6,27.2,16.1,26.7,15.8,26z M19.4,22.3c0,0.7-0.1,1.4-0.4,1.9c-0.3,0.5-0.5,0.8-1,1c0.1-0.7,0.1-1.3,0.5-1.9
			S19.1,22.6,19.4,22.3z M15.3,22.6c0.4,0.4,0.7,0.3,1.3,0.8s0.7,1.1,1,1.8c-0.5-0.2-0.9-0.4-1.3-0.8C15.8,23.9,15.5,23.4,15.3,22.6
			z M19.3,19.7c-0.1,0.7-0.4,1.3-0.7,1.8c-0.4,0.5-0.6,0.7-1.1,0.8c0.3-0.7,0.3-1.3,0.7-1.8C18.7,20,19,20,19.3,19.7z M15.4,19.3
			c0.3,0.4,0.5,0.4,1,1c0.4,0.6,0.4,1.2,0.6,1.9c-0.5-0.3-0.7-0.5-1.1-1C15.7,20.7,15.5,20,15.4,19.3z M19.7,17
			c-0.3,0.7-0.6,1.2-1,1.6s-0.7,0.6-1.2,0.7c0.4-0.6,0.5-1.2,1-1.6C19.1,17.3,19.4,17.3,19.7,17z M16.3,16.1
			c0.2,0.5,0.4,0.5,0.7,1.2s0.2,1.2,0.2,2c-0.4-0.3-0.6-0.6-0.7-1.2C16.2,17.5,16.2,16.8,16.3,16.1z M20.7,14.5
			c-0.4,0.6-0.8,1.1-1.2,1.4c-0.5,0.3-0.8,0.5-1.2,0.5c0.5-0.6,0.7-1.1,1.3-1.4C20.1,14.7,20.3,14.8,20.7,14.5z M17.8,13.1
			c0.1,0.5,0.3,0.5,0.4,1.2c0.1,0.7-0.1,1.2-0.2,1.9c-0.3-0.4-0.4-0.7-0.5-1.3C17.4,14.5,17.5,13.9,17.8,13.1z M22.3,12.3
			c-0.5,0.5-1,1-1.4,1.2c-0.5,0.3-0.8,0.3-1.3,0.3c0.5-0.5,0.9-0.9,1.5-1.2C21.7,12.4,21.8,12.5,22.3,12.3z M33.4,10
			c-0.2,0.2-0.1,0.5,0,0.7c0.1,0,0.2-0.1,0.3-0.1c-0.1,0-0.3,0.1-0.4,0.2c-0.2,0.3-0.1,0.7,0.3,0.7c0.1-0.2,0.3-0.4,0.5-0.5
			c-0.2-0.2-0.2-0.4-0.2-0.6c0.2-0.1,0.4-0.1,0.6,0c0.1-0.2,0.3-0.4,0.4-0.6c-0.2-0.3-0.6-0.3-0.8,0C34,9.9,34,10.1,34,10.2
			c0-0.1,0-0.2,0-0.3C33.8,9.8,33.5,9.8,33.4,10z M36.3,29.8c-0.3-0.3-0.7-0.3-1.1-0.2c0.1,0.2,0.1,0.3,0,0.5c0-0.2-0.1-0.4-0.3-0.6
			c-0.4-0.4-1-0.3-1.2,0.2c0.3,0.2,0.6,0.5,0.8,0.8c0.3-0.1,0.7-0.1,1,0c0.1,0.3,0.1,0.7-0.1,1c0.3,0.2,0.6,0.5,0.8,0.8
			c0.5-0.2,0.6-0.8,0.2-1.2c-0.2-0.2-0.4-0.3-0.6-0.3c0.1,0,0.3,0,0.5,0C36.7,30.5,36.6,30.1,36.3,29.8z M37.8,27.4
			c-0.3-0.2-0.8-0.1-1,0.1c0.1,0.1,0.1,0.3,0.1,0.4c0-0.2-0.2-0.4-0.4-0.5c-0.5-0.3-1.1,0-1.1,0.5c0.3,0.2,0.7,0.4,0.9,0.6
			c0.3-0.2,0.6-0.3,0.9-0.3c0.2,0.3,0.2,0.6,0.2,0.9c0.3,0.1,0.7,0.3,1,0.5c0.4-0.3,0.4-0.9-0.1-1.2c-0.2-0.1-0.4-0.2-0.6-0.1
			c0.1-0.1,0.3-0.1,0.4-0.1C38.3,28.1,38.2,27.6,37.8,27.4z M38.7,25c-0.4-0.1-0.7,0-0.9,0.3c0.1,0.1,0.2,0.2,0.2,0.4
			c-0.1-0.2-0.3-0.3-0.5-0.4c-0.5-0.2-1,0.2-0.9,0.6c0.4,0.1,0.7,0.2,1,0.4c0.2-0.2,0.5-0.4,0.8-0.5c0.2,0.2,0.4,0.5,0.4,0.8
			c0.3,0,0.7,0.2,1,0.3c0.4-0.3,0.2-0.9-0.3-1.1c-0.2-0.1-0.4-0.1-0.6,0c0.1-0.1,0.3-0.1,0.4-0.2C39.3,25.5,39.1,25.1,38.7,25z
			 M39.2,22.6c-0.4-0.1-0.7,0.2-0.8,0.5c0.1,0.1,0.2,0.2,0.3,0.3c-0.1-0.2-0.3-0.3-0.5-0.3c-0.5-0.1-0.9,0.3-0.8,0.8
			c0.4,0,0.7,0.1,1,0.2c0.2-0.3,0.4-0.5,0.7-0.6c0.2,0.2,0.4,0.5,0.5,0.7c0.3,0,0.7,0,1,0.1c0.3-0.4,0-0.9-0.5-1
			c-0.2,0-0.4,0-0.6,0.1c0.1-0.1,0.2-0.2,0.4-0.2C39.9,22.9,39.6,22.6,39.2,22.6z M39.3,20.2c-0.4,0-0.6,0.3-0.7,0.6
			c0.1,0.1,0.2,0.1,0.3,0.3c-0.1-0.1-0.3-0.2-0.5-0.2c-0.5,0-0.8,0.5-0.6,0.9c0.3-0.1,0.7-0.1,1,0c0.1-0.3,0.3-0.5,0.5-0.6
			c0.3,0.1,0.5,0.4,0.6,0.6c0.3-0.1,0.6-0.1,1,0c0.2-0.4-0.1-0.8-0.6-0.8c-0.2,0-0.4,0.1-0.5,0.2c0.1-0.1,0.2-0.2,0.3-0.3
			C39.9,20.5,39.6,20.2,39.3,20.2z M38.9,18c-0.3,0.1-0.5,0.4-0.6,0.6c0.1,0,0.2,0.1,0.3,0.2c-0.1-0.1-0.3-0.2-0.5-0.1
			c-0.5,0.1-0.7,0.6-0.4,0.9c0.3-0.1,0.6-0.2,0.9-0.2c0.1-0.3,0.2-0.5,0.4-0.7c0.3,0.1,0.5,0.3,0.6,0.5c0.3-0.1,0.6-0.2,0.9-0.2
			c0.1-0.4-0.3-0.8-0.7-0.7c-0.2,0-0.4,0.2-0.5,0.3c0.1-0.1,0.1-0.2,0.2-0.3C39.5,18.1,39.2,17.9,38.9,18z M38.2,15.9
			c-0.3,0.1-0.5,0.4-0.4,0.7c0.1,0,0.2,0.1,0.3,0.1c-0.2-0.1-0.3-0.1-0.5,0c-0.4,0.2-0.5,0.6-0.3,0.9c0.3-0.1,0.5-0.2,0.8-0.3
			c0-0.3,0.1-0.5,0.3-0.7c0.3,0,0.5,0.2,0.7,0.4c0.3-0.2,0.5-0.3,0.8-0.3c0.1-0.4-0.4-0.7-0.8-0.5c-0.2,0.1-0.3,0.2-0.4,0.4
			c0-0.1,0.1-0.2,0.2-0.3C38.9,16,38.5,15.8,38.2,15.9z M37.3,14.1c-0.3,0.1-0.4,0.5-0.3,0.7c0.1,0,0.2,0,0.3,0.1
			c-0.2-0.1-0.3,0-0.5,0c-0.4,0.2-0.4,0.7-0.1,0.9c0.2-0.2,0.5-0.3,0.7-0.4c0-0.3,0-0.5,0.2-0.7c0.3,0,0.5,0.1,0.7,0.3
			c0.2-0.2,0.5-0.3,0.7-0.4c0-0.4-0.5-0.6-0.8-0.4c-0.2,0.1-0.3,0.2-0.3,0.4c0-0.1,0.1-0.2,0.1-0.3C38,14,37.6,14,37.3,14.1z
			 M36.2,12.4c-0.2,0.2-0.3,0.5-0.2,0.7c0.1,0,0.2,0,0.3,0c-0.2,0-0.3,0-0.5,0.1c-0.3,0.2-0.3,0.7,0,0.9c0.2-0.2,0.4-0.4,0.6-0.5
			c-0.1-0.2,0-0.5,0.1-0.7c0.3,0,0.5,0,0.7,0.2c0.2-0.2,0.4-0.4,0.6-0.5c-0.1-0.4-0.5-0.5-0.8-0.3c-0.1,0.1-0.2,0.3-0.2,0.4
			c0-0.1,0-0.2,0.1-0.3C36.8,12.3,36.4,12.3,36.2,12.4z M34.8,11.1c-0.2,0.2-0.2,0.5-0.1,0.7c0.1,0,0.2,0,0.3,0
			c-0.1,0-0.3,0-0.4,0.2c-0.3,0.3-0.2,0.7,0.2,0.8c0.2-0.2,0.3-0.4,0.5-0.5c-0.1-0.2-0.1-0.5-0.1-0.7c0.2-0.1,0.5,0,0.7,0.1
			c0.1-0.2,0.3-0.4,0.5-0.5c-0.1-0.3-0.6-0.4-0.8-0.2c-0.1,0.1-0.2,0.3-0.2,0.4c0-0.1,0-0.2,0-0.3C35.3,10.9,35,11,34.8,11.1z
			 M44.8,10.8c4.5,5.9,6.8,13.5,6.8,21.2c0,3.9-0.6,7.9-1.8,11.5c0.4-0.1,0.8-0.2,1.2-0.3c0.7-0.1,1.3,0.1,1.9,0.1
			c0.3,0,0.4-0.7,0.1-1c-0.3-0.4-0.7-1-0.3-1.8c0.1-0.3,0.4-0.5,0.6-0.7c-0.1,0.5,0,1,0.4,1.4c0.6,0.6,1.2,1.3,1.6,2.1
			c0.5,0.9,0.8,2,0.5,2.8c-0.3,1-1.3,1.7-2.3,1.5c0.3,0.5,0.3,1.1,0,1.6S52.6,50.1,52,50c0.2,0.5-0.1,0.9-0.3,1.4
			c-2.2,3.9-4.9,7.3-8.4,10.1c-4.6,3.5-9.8,5.3-15,5.3l0,0l0,0c-5.3,0-10.5-1.8-15-5.3c-3.5-2.7-6.2-6.2-8.4-10.1
			C4.7,51,4.4,50.5,4.6,50c-0.6,0.1-1.3-0.3-1.5-0.8s-0.2-1.1,0-1.6c-1,0.2-2-0.5-2.3-1.5c-0.3-0.9,0-1.9,0.5-2.8
			c0.4-0.8,1-1.4,1.6-2.1c0.4-0.4,0.4-0.9,0.4-1.4c0.2,0.2,0.5,0.4,0.6,0.7c0.4,0.8,0,1.5-0.3,1.8c-0.2,0.3-0.2,1,0.1,1
			c0.6,0,1.3-0.2,1.9-0.1c0.4,0,0.8,0.1,1.2,0.3C5.6,39.8,5,35.9,5,32c0-7.6,2.3-15.3,6.8-21.2S22.3,2,28.4,2
			C34.2,2,40.2,4.9,44.8,10.8z"/>
		<path class="st3" d="M33.6,31.5c-0.1,0.2,0,0.5,0.2,0.8s0.6,0.4,0.8,0.2c0.4,0.1,0.8,0.1,1.1,0s0.5,0,0.8,0
			c-0.2-0.4-0.6-0.8-0.9-1c-0.1,0.1-0.2,0.2-0.3,0.3c0.3-0.4,0.4-0.8,0.3-1.3c-0.5-0.1-0.9,0-1.3,0.3c0.1-0.1,0.2-0.2,0.3-0.3
			c-0.2-0.4-0.6-0.7-1-1c0.1,0.3,0.1,0.5,0,0.8C33.5,30.7,33.5,31.1,33.6,31.5 M34.6,11.7c-0.1-0.2,0-0.5,0.1-0.6
			c0.2-0.2,0.4-0.2,0.6-0.2c0-0.2-0.1-0.5-0.2-0.6C35,10.1,35,10,35,9.8c-0.2,0.2-0.4,0.4-0.5,0.7c0.1,0,0.2,0.1,0.3,0.2
			c-0.3-0.2-0.6-0.2-0.9-0.1c0,0.3,0.1,0.6,0.4,0.8c-0.1-0.1-0.2-0.1-0.2-0.2c-0.2,0.2-0.4,0.4-0.5,0.7c0.2-0.1,0.3-0.1,0.5-0.1
			C34.3,11.7,34.4,11.7,34.6,11.7z M35.9,13.1c-0.1-0.3,0-0.5,0.3-0.7c0.2-0.1,0.4-0.2,0.6-0.1c0-0.2,0-0.5-0.1-0.6
			c-0.1-0.2,0-0.3,0-0.5c-0.3,0.2-0.5,0.4-0.6,0.6c0.1,0.1,0.2,0.1,0.2,0.2c-0.3-0.2-0.6-0.3-0.9-0.3c-0.1,0.3,0,0.6,0.3,0.9
			c-0.1-0.1-0.1-0.1-0.2-0.2c-0.3,0.2-0.5,0.4-0.6,0.6c0.2,0,0.4-0.1,0.5,0C35.5,13,35.7,13.1,35.9,13.1z M36.9,14.6
			c0-0.3,0.1-0.5,0.4-0.7c0.2-0.1,0.5-0.1,0.7,0c0.1-0.2,0.1-0.5,0.1-0.7s0-0.3,0.1-0.6c-0.3,0.1-0.6,0.3-0.8,0.5
			c0.1,0.1,0.2,0.2,0.2,0.3c-0.2-0.3-0.5-0.4-0.9-0.4c-0.1,0.3-0.1,0.6,0.1,1c-0.1-0.1-0.1-0.2-0.2-0.3c-0.3,0.1-0.5,0.3-0.7,0.6
			c0.3,0,0.4,0,0.6,0.1C36.6,14.6,36.7,14.6,36.9,14.6z M38.2,18.4c0.1-0.3,0.3-0.5,0.6-0.6s0.6,0.1,0.7,0.3
			c0.2-0.2,0.3-0.5,0.3-0.7s0.1-0.4,0.3-0.6c-0.4,0-0.7,0.2-1,0.4c0.1,0.1,0.1,0.2,0.1,0.3c-0.2-0.4-0.5-0.6-0.8-0.7
			c-0.2,0.3-0.3,0.7-0.2,1c0-0.1-0.1-0.2-0.1-0.3c-0.3,0-0.7,0.2-1,0.4c0.3,0.1,0.4,0.1,0.6,0.3C38,18.2,38.1,18.3,38.2,18.4z
			 M37.7,16.4c0-0.3,0.2-0.5,0.5-0.6s0.6,0,0.8,0.2c0.1-0.2,0.2-0.5,0.2-0.7s0.1-0.4,0.2-0.6c-0.4,0.1-0.6,0.2-0.9,0.5
			c0.1,0.1,0.1,0.2,0.2,0.3c-0.2-0.3-0.5-0.5-0.8-0.5c-0.2,0.3-0.2,0.7,0,1c-0.1-0.1-0.1-0.2-0.1-0.3c-0.3,0.1-0.6,0.3-0.9,0.5
			c0.3,0,0.4,0,0.6,0.2C37.4,16.3,37.5,16.4,37.7,16.4z M38.5,20.6c0.1-0.3,0.4-0.5,0.7-0.5c0.3,0,0.5,0.2,0.7,0.4
			c0.2-0.2,0.4-0.5,0.4-0.7c0.1-0.3,0.2-0.3,0.4-0.5c-0.4,0-0.8,0-1.1,0.2c0,0.1,0.1,0.2,0.1,0.4c-0.1-0.4-0.4-0.7-0.7-0.8
			c-0.3,0.3-0.4,0.6-0.4,1c0-0.1,0-0.2,0-0.4c-0.4,0-0.7,0.1-1.1,0.2c0.3,0.1,0.4,0.2,0.5,0.4C38.2,20.3,38.4,20.4,38.5,20.6z
			 M38.4,22.7c0.2-0.3,0.5-0.4,0.8-0.3c0.3,0,0.5,0.3,0.7,0.5c0.3-0.2,0.5-0.4,0.6-0.6s0.3-0.3,0.5-0.5c-0.4-0.1-0.8-0.1-1.2,0
			c0,0.1,0,0.3,0,0.4c0-0.4-0.3-0.8-0.6-1c-0.3,0.2-0.5,0.6-0.5,1c0-0.1,0-0.3,0-0.4c-0.4-0.1-0.8-0.1-1.2,0
			c0.2,0.2,0.4,0.2,0.5,0.5C38.1,22.5,38.3,22.6,38.4,22.7z M37.9,25c0.3-0.2,0.6-0.3,0.9-0.2c0.3,0.1,0.5,0.4,0.6,0.7l0,0
			c0.3-0.1,0.6-0.4,0.7-0.6c0.2-0.2,0.3-0.3,0.6-0.4c-0.4-0.2-0.8-0.3-1.2-0.2c0,0.1,0,0.3,0,0.4c0-0.4-0.1-0.8-0.4-1.1
			c-0.4,0.2-0.6,0.5-0.7,0.9c0-0.1,0-0.3,0.1-0.4c-0.4-0.1-0.8-0.2-1.2-0.2c0.2,0.2,0.4,0.3,0.4,0.6C37.7,24.7,37.8,24.8,37.9,25z
			 M37,27.3c0.3-0.2,0.6-0.2,1,0c0.3,0.2,0.4,0.4,0.5,0.7l0,0c0.3-0.1,0.7-0.3,0.9-0.5s0.4-0.2,0.7-0.3c-0.4-0.3-0.8-0.4-1.2-0.5
			c0,0.1-0.1,0.3-0.1,0.4c0.1-0.5,0-0.9-0.3-1.2c-0.4,0.1-0.8,0.4-0.9,0.8c0-0.1,0.1-0.3,0.2-0.4c-0.4-0.2-0.8-0.4-1.2-0.4
			c0.2,0.3,0.3,0.4,0.4,0.6C36.8,26.9,36.8,27.1,37,27.3z M19.8,10.6c0,0.5,0.1,0.6,0.1,1.2c-0.1,0.7-0.4,1.1-0.6,1.8
			c-0.2-0.4-0.2-0.7-0.1-1.3C19.2,11.8,19.5,11.2,19.8,10.6z M23.7,9.8c-0.4,0.4-0.4,0.7-0.9,1.3s-1.1,0.5-1.8,0.8
			c0.2-0.6,0.4-0.9,0.9-1.3C22.4,10.1,23,9.9,23.7,9.8z M22.7,28.7c0.5,0.6,0.7,1.2,0.7,1.8s-0.1,1-0.4,1.6
			c-0.3-0.7-0.7-1.1-0.7-1.9C22.5,29.4,22.7,29.2,22.7,28.7z M19,32.1c0.6,0,0.8-0.3,1.6-0.3s1.3,0.4,2,0.7c-0.6,0.3-1,0.4-1.7,0.4
			C20.2,32.8,19.6,32.5,19,32.1z M21.2,26.9c0.3,0.7,0.4,1.3,0.3,1.9s-0.3,1-0.6,1.4c-0.2-0.7-0.5-1.2-0.3-2
			C20.8,27.5,21,27.4,21.2,26.9z M17,29.2c0.5,0.1,0.8-0.1,1.6,0.1c0.8,0.2,1.1,0.7,1.7,1.1c-0.6,0.1-1.1,0.1-1.7-0.1
			C18,30.2,17.5,29.8,17,29.2z M20,24.7c0.2,0.7,0.2,1.4,0,1.9c-0.2,0.6-0.4,0.9-0.8,1.3c0-0.7-0.2-1.3,0.1-2
			C19.5,25.2,19.8,25.1,20,24.7z M15.8,26c0.5,0.2,0.8,0.1,1.5,0.5s0.9,0.9,1.4,1.5c-0.6,0-1-0.1-1.5-0.5
			C16.6,27.2,16.1,26.7,15.8,26z M19.4,22.3c0,0.7-0.1,1.4-0.4,1.9c-0.3,0.5-0.5,0.8-1,1c0.1-0.7,0.1-1.3,0.5-1.9
			S19.1,22.6,19.4,22.3z M15.3,22.6c0.4,0.4,0.7,0.3,1.3,0.8s0.7,1.1,1,1.8c-0.5-0.2-0.9-0.4-1.3-0.8C15.8,23.9,15.5,23.4,15.3,22.6
			z M19.3,19.7c-0.1,0.7-0.4,1.3-0.7,1.8c-0.4,0.5-0.6,0.7-1.1,0.8c0.3-0.7,0.3-1.3,0.7-1.8C18.7,20,19,20,19.3,19.7z M15.4,19.3
			c0.3,0.4,0.5,0.4,1,1c0.4,0.6,0.4,1.2,0.6,1.9c-0.5-0.3-0.7-0.5-1.1-1C15.7,20.7,15.5,20,15.4,19.3z M19.7,17
			c-0.3,0.7-0.6,1.2-1,1.6s-0.7,0.6-1.2,0.7c0.4-0.6,0.5-1.2,1-1.6C19.1,17.3,19.4,17.3,19.7,17z M16.3,16.1
			c0.2,0.5,0.4,0.5,0.7,1.2s0.2,1.2,0.2,2c-0.4-0.3-0.6-0.6-0.7-1.2C16.2,17.5,16.2,16.8,16.3,16.1z M20.7,14.5
			c-0.4,0.6-0.8,1.1-1.2,1.4c-0.5,0.3-0.8,0.5-1.2,0.5c0.5-0.6,0.7-1.1,1.3-1.4C20.1,14.7,20.3,14.8,20.7,14.5z M17.8,13.1
			c0.1,0.5,0.3,0.5,0.4,1.2c0.1,0.7-0.1,1.2-0.2,1.9c-0.3-0.4-0.4-0.7-0.5-1.3C17.4,14.5,17.5,13.9,17.8,13.1z M22.3,12.3
			c-0.5,0.5-1,1-1.4,1.2c-0.5,0.3-0.8,0.3-1.3,0.3c0.5-0.5,0.9-0.9,1.5-1.2C21.7,12.4,21.8,12.5,22.3,12.3z M35.5,29.4
			c0.3-0.1,0.7,0,0.9,0.3c0.2,0.2,0.3,0.5,0.3,0.8c0,0,0,0,0.1-0.1c0.4,0,0.7-0.1,1-0.3c0.2-0.2,0.4-0.1,0.7-0.2
			c-0.3-0.3-0.7-0.6-1.1-0.7c0,0.1-0.1,0.3-0.2,0.4c0.2-0.4,0.2-0.9,0-1.3c-0.4,0-0.9,0.2-1.1,0.6c0.1-0.1,0.2-0.2,0.2-0.3
			c-0.3-0.3-0.7-0.5-1.1-0.7c0.1,0.3,0.2,0.5,0.2,0.7C35.4,28.9,35.4,29.2,35.5,29.4z"/>
		<path class="st4" d="M27.1,37.7c-0.7,0.5-0.9,1.4-0.5,1.9s1.3,0.5,2,0c0.6-0.5,1.3-1.8,1.2-3.4c-0.1-0.8-0.4-1.8-0.7-2.2
			c0.4-0.3,0.5-0.8,0.5-1.4c0-0.5-0.2-0.8-0.4-1.1l-1.6,0.1c-0.2,0.3-0.4,0.7-0.3,1.2c0,0.5,0.3,1,0.6,1.3c-0.4,0.4-0.5,1.1-0.5,1.9
			c0,0.6,0.2,1.1,0.4,1.5C27.5,37.5,27.3,37.6,27.1,37.7"/>
		<path class="st5" d="M3.4,40.6c0,0.5-0.2,0.6-0.4,0.8c-1.2,1.2-2.7,3.4-1.9,4.8c0.5,0.9,1.5,1.3,2.5,0.6c0.8-0.5,1.3-1.4,1.5-1.9
			c0.1,0.6-0.6,1.5-1.5,2.4c-0.5,0.5-0.5,1.3-0.1,1.8c0.3,0.4,1,0.6,1.3,0.3c0.6-0.6,1.5-1.8,1.7-2.5c0.1,0.9-0.7,1.7-1.3,2.4
			c-0.4,0.5-0.6,0.9-0.4,1.3c1,2,2.2,3.8,3.6,5.5c5.4,6.7,12.6,10.1,19.7,10.1s14.5-3.3,19.8-10c1.4-1.7,2.6-3.6,3.6-5.5
			c0.2-0.4,0-0.8-0.4-1.3c-0.5-0.7-1.4-1.5-1.3-2.4c0.2,0.7,1.1,1.9,1.7,2.5c0.3,0.3,1,0.2,1.3-0.3c0.4-0.5,0.4-1.3-0.1-1.8
			c-0.9-0.9-1.6-1.8-1.5-2.4c0.2,0.5,0.7,1.4,1.5,1.9c1,0.6,2,0.2,2.5-0.6c0.7-1.4-0.8-3.7-1.9-4.8c-0.2-0.2-0.4-0.3-0.4-0.8
			c-0.4,0.7,0.1,1.3,0.3,1.5c0.3,0.5,0.1,1.2-0.1,1.4c-0.4,0.4-1.7-0.3-2.8,0c-0.5,0.1-1.2,0.4-1.4,0.9c-0.1,0.3,0,0.8,0.1,1.1
			s-0.2,0.6-0.4,0.6c-1,2.4-2.4,4.8-4,6.9C40.1,59,34.1,61.8,28,61.8S16,59,11.4,53.1c-1.6-2.1-3-4.5-4-6.9c-0.2,0-0.5-0.3-0.4-0.6
			s0.2-0.8,0.1-1.1c-0.2-0.5-0.9-0.8-1.4-0.9c-1.1-0.3-2.4,0.3-2.8,0c-0.2-0.2-0.4-0.9-0.1-1.4C3.2,41.9,3.7,41.3,3.4,40.6z
			 M48.9,53.4l-2.3-1.3l0.3-0.5l0.8,0.5l0.5-0.9l-0.8-0.5l0.3-0.5l2.3,1.3L49.7,52l-1-0.6l-0.5,0.9l1,0.6L48.9,53.4z M48.2,54.4
			l-2.1-1.5l0.3-0.5l2.1,1.5L48.2,54.4z M46.2,55.5l0.7,0.6l-0.3,0.4l-2-1.6l0.7-0.9c0.2-0.2,0.4-0.3,0.5-0.4s0.4,0.1,0.6,0.2
			c0.2,0.2,0.3,0.4,0.4,0.5c0,0.2,0,0.4-0.2,0.6L46.2,55.5z M45.8,55.2l0.3-0.4c0.1-0.1,0.1-0.2,0.1-0.3s-0.1-0.2-0.2-0.3
			s-0.2-0.1-0.3-0.1c-0.1,0-0.2,0.1-0.3,0.2l-0.3,0.4L45.8,55.2z M43.3,56.2l0.4-0.5l2.5,1.1l-0.4,0.4L45.3,57l-0.7,0.7l0.3,0.5
			l-0.4,0.4L43.3,56.2z M43.9,56.3l0.5,1l0.5-0.5L43.9,56.3z M42.7,60.2l-1.7-2l0.9-0.8c0.2-0.2,0.4-0.3,0.6-0.3s0.4,0.1,0.5,0.3
			c0.1,0.1,0.2,0.2,0.2,0.4c0,0.1,0,0.2-0.1,0.4c0.1,0,0.2-0.1,0.3,0c0.1,0,0.2,0.1,0.3,0.2l0.2,0.2l0,0c0.1,0.1,0.2,0.2,0.3,0.2
			l0.1,0.1l-0.5,0.4c0,0-0.1,0-0.1-0.1l-0.1-0.1l-0.2-0.2c-0.1-0.1-0.2-0.2-0.3-0.2c-0.1,0-0.2,0-0.3,0.1l-0.4,0.4L43,60L42.7,60.2z
			 M42.1,58.8l0.5-0.4c0.1-0.1,0.2-0.2,0.2-0.3s0-0.2-0.1-0.3s-0.2-0.1-0.2-0.1c-0.1,0-0.2,0-0.3,0.1l-0.5,0.4L42.1,58.8z
			 M39.4,62.4L38,60.2l0.5-0.3l0.5,0.8l0.9-0.6l-0.5-0.8l0.5-0.3l1.4,2.2l-0.5,0.3l-0.6-1l-0.9,0.6l0.6,1L39.4,62.4z M37.2,63.5
			l-1.1-2.3l1.7-0.8l0.2,0.4l-1.2,0.6l0.3,0.5l1.1-0.5l0.2,0.4l-1.1,0.5l0.3,0.6l1.3-0.6l0.2,0.4L37.2,63.5z M34.9,63.4l0.3,0.9
			l-0.5,0.2l-0.9-2.4l1.1-0.4c0.3-0.1,0.5-0.1,0.6,0c0.2,0.1,0.3,0.3,0.4,0.5s0.1,0.5,0,0.6c-0.1,0.2-0.2,0.3-0.5,0.4L34.9,63.4z
			 M34.8,63l0.5-0.2c0.1,0,0.2-0.1,0.3-0.2c0-0.1,0-0.2,0-0.3c0-0.1-0.1-0.2-0.2-0.2c-0.1,0-0.2,0-0.3,0l-0.5,0.2L34.8,63z
			 M32.3,65.1l-0.6-2.5l1.8-0.4l0.1,0.5L32.3,63l0.1,0.5l1.2-0.3l0.1,0.4l-1.2,0.3l0.2,0.6l1.4-0.3l0.1,0.5L32.3,65.1z M29.5,65.4
			l-0.3-2.6l1.3-0.1c0.3,0,0.5,0,0.6,0.1c0.2,0.1,0.2,0.3,0.3,0.5c0,0.2,0,0.3-0.1,0.4S31.2,63.9,31,64c0.1,0,0.2,0.1,0.3,0.2
			s0.1,0.2,0.1,0.4v0.3l0,0c0,0.2,0.1,0.3,0.1,0.3v0.1l-0.6,0.1c0,0,0-0.1-0.1-0.1c0-0.1,0-0.1,0-0.2v-0.3c0-0.2-0.1-0.3-0.1-0.3
			c-0.1-0.1-0.2-0.1-0.3-0.1l-0.5,0.1l0.1,1L29.5,65.4z M29.9,63.9l0.6-0.1c0.1,0,0.2-0.1,0.3-0.1s0.1-0.2,0.1-0.3
			c0-0.1-0.1-0.2-0.1-0.3C30.7,63,30.6,63,30.5,63l-0.6,0.1V63.9z M25.6,65.3l0.2-2.6h0.5l-0.1,1l1.1,0.1l0.1-1h0.5l-0.2,2.6h-0.5
			l0.1-1.2l-1.1-0.1l-0.1,1.2H25.6z M24.1,62.4l0.6,0.1l0.4,2.7l-0.5-0.1l-0.1-0.5l-1-0.2l-0.3,0.5l-0.5-0.1L24.1,62.4z M24.3,63
			l-0.5,1l0.7,0.1L24.3,63z M21.5,63.4l-0.3,0.9l-0.5-0.2l0.8-2.4l1.1,0.4c0.3,0.1,0.4,0.2,0.5,0.4c0.1,0.2,0.1,0.4,0,0.6
			s-0.2,0.4-0.4,0.5s-0.4,0.1-0.6,0L21.5,63.4z M21.7,63l0.5,0.2c0.1,0,0.2,0,0.3,0s0.1-0.1,0.2-0.3c0-0.1,0-0.2,0-0.3
			s-0.1-0.1-0.2-0.2l-0.6-0.1L21.7,63z M19.5,63.7l1-2.4l0.5,0.2l-1,2.4L19.5,63.7z M17,62.4l1.2-2.3l1.1,0.6
			c0.3,0.1,0.4,0.3,0.5,0.5s0,0.4-0.1,0.6c-0.1,0.1-0.2,0.2-0.3,0.3c-0.1,0.1-0.2,0.1-0.4,0.1c0.1,0.1,0.1,0.2,0.1,0.3
			c0,0.1,0,0.2-0.1,0.4l-0.1,0.3l0,0c-0.1,0.1-0.1,0.2,0,0.3v0.1l-0.5-0.3v-0.1c0-0.1,0-0.1,0.1-0.2l0.1-0.3
			c0.1-0.1,0.1-0.3,0.1-0.3c0-0.1-0.1-0.2-0.2-0.2L18,61.9l-0.5,0.9L17,62.4z M18.2,61.4l0.5,0.3c0.1,0.1,0.2,0.1,0.3,0.1
			s0.2-0.1,0.2-0.2c0.1-0.1,0.1-0.2,0-0.3s-0.1-0.2-0.2-0.2l-0.6-0.3L18.2,61.4z M13.8,60.2l1.5-2.1l0.4,0.3l-0.6,0.8l0.9,0.6
			l0.6-0.8l0.4,0.3l-1.5,2.1l-0.4-0.3l0.7-0.9l-0.9-0.6l-0.7,1L13.8,60.2z M14.1,57.1l0.5,0.4L13.5,60L13,59.6l0.2-0.5l-0.7-0.7
			L12,58.7l-0.4-0.4L14.1,57.1z M13.9,57.7l-1,0.5l0.5,0.5L13.9,57.7z M9.5,56.1l1.9-1.7l0.5,0.6l-1,1.6l1.8-0.9l0.5,0.6L11.3,58
			l-0.4-0.4l1.5-1.4l-1.9,1l-0.4-0.4l1.2-1.8l-1.4,1.4L9.5,56.1z M8,54.1l2.1-1.5l1.1,1.5l-0.4,0.3L10,53.3l-0.5,0.3l0.7,1l-0.3,0.2
			l-0.7-1l-0.5,0.4l0.8,1.1l-0.4,0.3L8,54.1z M7.6,53c-0.2,0-0.3-0.1-0.4-0.1c-0.1-0.1-0.2-0.2-0.3-0.3c-0.2-0.3-0.2-0.6-0.1-0.9
			c0.1-0.3,0.3-0.6,0.7-0.8c0.4-0.2,0.7-0.3,1-0.2s0.6,0.3,0.8,0.6s0.2,0.5,0.2,0.8s-0.2,0.5-0.4,0.6l-0.3-0.5C8.9,52.1,9,52,9,51.9
			s0-0.3-0.1-0.4c-0.1-0.2-0.3-0.3-0.5-0.3s-0.4,0-0.7,0.2c-0.3,0.1-0.4,0.3-0.5,0.5s-0.1,0.4,0.1,0.6c0.1,0.2,0.2,0.3,0.4,0.3
			c0.1,0,0.3,0,0.5,0l-0.3-0.5l0.4-0.2L8.8,53l-1.2,0.7l-0.2-0.3L7.6,53z M44.4,11.1C40,5.3,34.1,2.4,28.2,2.4S16.4,5.3,12,11.1
			S5.3,24.3,5.3,31.8c0,4.1,0.6,8.1,2,11.9c0.2,0.1,0.3,0.3,0.4,0.5c0.1,0.2,0.1,0.5,0.1,0.8c1.1,2.7,2.5,5.3,4.2,7.5
			c4.4,5.8,10.3,8.7,16.2,8.7s11.8-2.9,16.2-8.7c1.8-2.3,3.2-4.8,4.2-7.5c0-0.3,0-0.6,0.1-0.8s0.2-0.4,0.4-0.5c1.3-3.8,2-7.8,2-11.9
			C51.1,24.4,48.9,16.9,44.4,11.1z M13.1,12c4.2-5.4,9.6-8.1,15.1-8.1S39.1,6.5,43.3,12c4.2,5.4,6.4,12.7,6.4,19.9
			s-2.2,14.4-6.4,19.9s-9.6,8.1-15.1,8.1s-10.9-2.6-15.1-8.1c-4.2-5.4-6.4-12.7-6.4-19.9C6.7,24.7,8.9,17.5,13.1,12z M27.6,59.2
			c0.2,0,0.4,0,0.6,0l0,0l0,0c0.3,0,0.6,0,0.9,0c0.1-0.4,0.1-0.7,0.1-1c0-1.2-0.5-2.3-0.5-3.5s0.5-2.3,0.5-3.5s-0.5-2.3-0.5-3.5
			s0.5-2.3,0.5-3.5c0-0.4-0.1-0.8-0.1-1.2h-1.5c0.1,0.4,0.1,0.8,0.1,1.2c0,1.2-0.5,2.3-0.5,3.5s0.5,2.3,0.5,3.5s-0.5,2.3-0.5,3.5
			s0.5,2.3,0.5,3.5C27.7,58.5,27.7,58.8,27.6,59.2z"/>
		<path class="st2" d="M33.4,10c-0.2,0.2-0.1,0.5,0,0.7c0.1,0,0.2-0.1,0.3-0.1c-0.1,0-0.3,0.1-0.4,0.2c-0.2,0.3-0.1,0.7,0.3,0.7
			c0.1-0.2,0.3-0.4,0.5-0.5c-0.2-0.2-0.2-0.4-0.2-0.6c0.2-0.1,0.4-0.1,0.6,0c0.1-0.2,0.3-0.4,0.4-0.6c-0.2-0.3-0.6-0.3-0.8,0
			C34,9.9,34,10.1,34,10.2c0-0.1,0-0.2,0-0.3C33.8,9.8,33.5,9.8,33.4,10 M36.3,29.8c-0.3-0.3-0.7-0.3-1.1-0.2c0.1,0.2,0.1,0.3,0,0.5
			c0-0.2-0.1-0.4-0.3-0.6c-0.4-0.4-1-0.3-1.2,0.2c0.3,0.2,0.6,0.5,0.8,0.8c0.3-0.1,0.7-0.1,1,0c0.1,0.3,0.1,0.7-0.1,1
			c0.3,0.2,0.6,0.5,0.8,0.8c0.5-0.2,0.6-0.8,0.2-1.2c-0.2-0.2-0.4-0.3-0.6-0.3c0.1,0,0.3,0,0.5,0C36.7,30.5,36.6,30.1,36.3,29.8z
			 M37.8,27.4c-0.3-0.2-0.8-0.1-1,0.1c0.1,0.1,0.1,0.3,0.1,0.4c0-0.2-0.2-0.4-0.4-0.5c-0.5-0.3-1.1,0-1.1,0.5
			c0.3,0.2,0.7,0.4,0.9,0.6c0.3-0.2,0.6-0.3,0.9-0.3c0.2,0.3,0.2,0.6,0.2,0.9c0.3,0.1,0.7,0.3,1,0.5c0.4-0.3,0.4-0.9-0.1-1.2
			c-0.2-0.1-0.4-0.2-0.6-0.1c0.1-0.1,0.3-0.1,0.4-0.1C38.3,28.1,38.2,27.6,37.8,27.4z M38.7,25c-0.4-0.1-0.7,0-0.9,0.3
			c0.1,0.1,0.2,0.2,0.2,0.4c-0.1-0.2-0.3-0.3-0.5-0.4c-0.5-0.2-1,0.2-0.9,0.6c0.4,0.1,0.7,0.2,1,0.4c0.2-0.2,0.5-0.4,0.8-0.5
			c0.2,0.2,0.4,0.5,0.4,0.8c0.3,0,0.7,0.2,1,0.3c0.4-0.3,0.2-0.9-0.3-1.1c-0.2-0.1-0.4-0.1-0.6,0c0.1-0.1,0.3-0.1,0.4-0.2
			C39.3,25.5,39.1,25.1,38.7,25z M39.2,22.6c-0.4-0.1-0.7,0.2-0.8,0.5c0.1,0.1,0.2,0.2,0.3,0.3c-0.1-0.2-0.3-0.3-0.5-0.3
			c-0.5-0.1-0.9,0.3-0.8,0.8c0.4,0,0.7,0.1,1,0.2c0.2-0.3,0.4-0.5,0.7-0.6c0.2,0.2,0.4,0.5,0.5,0.7c0.3,0,0.7,0,1,0.1
			c0.3-0.4,0-0.9-0.5-1c-0.2,0-0.4,0-0.6,0.1c0.1-0.1,0.2-0.2,0.4-0.2C39.9,22.9,39.6,22.6,39.2,22.6z M39.3,20.2
			c-0.4,0-0.6,0.3-0.7,0.6c0.1,0.1,0.2,0.1,0.3,0.3c-0.1-0.1-0.3-0.2-0.5-0.2c-0.5,0-0.8,0.5-0.6,0.9c0.3-0.1,0.7-0.1,1,0
			c0.1-0.3,0.3-0.5,0.5-0.6c0.3,0.1,0.5,0.4,0.6,0.6c0.3-0.1,0.6-0.1,1,0c0.2-0.4-0.1-0.8-0.6-0.8c-0.2,0-0.4,0.1-0.5,0.2
			c0.1-0.1,0.2-0.2,0.3-0.3C39.9,20.5,39.6,20.2,39.3,20.2z M38.9,18c-0.3,0.1-0.5,0.4-0.6,0.6c0.1,0,0.2,0.1,0.3,0.2
			c-0.1-0.1-0.3-0.2-0.5-0.1c-0.5,0.1-0.7,0.6-0.4,0.9c0.3-0.1,0.6-0.2,0.9-0.2c0.1-0.3,0.2-0.5,0.4-0.7c0.3,0.1,0.5,0.3,0.6,0.5
			c0.3-0.1,0.6-0.2,0.9-0.2c0.1-0.4-0.3-0.8-0.7-0.7c-0.2,0-0.4,0.2-0.5,0.3c0.1-0.1,0.1-0.2,0.2-0.3C39.5,18.1,39.2,17.9,38.9,18z
			 M38.2,15.9c-0.3,0.1-0.5,0.4-0.4,0.7c0.1,0,0.2,0.1,0.3,0.1c-0.2-0.1-0.3-0.1-0.5,0c-0.4,0.2-0.5,0.6-0.3,0.9
			c0.3-0.1,0.5-0.2,0.8-0.3c0-0.3,0.1-0.5,0.3-0.7c0.3,0,0.5,0.2,0.7,0.4c0.3-0.2,0.5-0.3,0.8-0.3c0.1-0.4-0.4-0.7-0.8-0.5
			c-0.2,0.1-0.3,0.2-0.4,0.4c0-0.1,0.1-0.2,0.2-0.3C38.9,16,38.5,15.8,38.2,15.9z M37.3,14.1c-0.3,0.1-0.4,0.5-0.3,0.7
			c0.1,0,0.2,0,0.3,0.1c-0.2-0.1-0.3,0-0.5,0c-0.4,0.2-0.4,0.7-0.1,0.9c0.2-0.2,0.5-0.3,0.7-0.4c0-0.3,0-0.5,0.2-0.7
			c0.3,0,0.5,0.1,0.7,0.3c0.2-0.2,0.5-0.3,0.7-0.4c0-0.4-0.5-0.6-0.8-0.4c-0.2,0.1-0.3,0.2-0.3,0.4c0-0.1,0.1-0.2,0.1-0.3
			C38,14,37.6,14,37.3,14.1z M36.2,12.4c-0.2,0.2-0.3,0.5-0.2,0.7c0.1,0,0.2,0,0.3,0c-0.2,0-0.3,0-0.5,0.1c-0.3,0.2-0.3,0.7,0,0.9
			c0.2-0.2,0.4-0.4,0.6-0.5c-0.1-0.2,0-0.5,0.1-0.7c0.3,0,0.5,0,0.7,0.2c0.2-0.2,0.4-0.4,0.6-0.5c-0.1-0.4-0.5-0.5-0.8-0.3
			c-0.1,0.1-0.2,0.3-0.2,0.4c0-0.1,0-0.2,0.1-0.3C36.8,12.3,36.4,12.3,36.2,12.4z M34.8,11.1c-0.2,0.2-0.2,0.5-0.1,0.7
			c0.1,0,0.2,0,0.3,0c-0.1,0-0.3,0-0.4,0.2c-0.3,0.3-0.2,0.7,0.2,0.8c0.2-0.2,0.3-0.4,0.5-0.5c-0.1-0.2-0.1-0.5-0.1-0.7
			c0.2-0.1,0.5,0,0.7,0.1c0.1-0.2,0.3-0.4,0.5-0.5c-0.1-0.3-0.6-0.4-0.8-0.2c-0.1,0.1-0.2,0.3-0.2,0.4c0-0.1,0-0.2,0-0.3
			C35.3,10.9,35,11,34.8,11.1z"/>
		<path class="st2" d="M33.3,17.3c0.3-0.2,0.4-0.5,0.4-0.8c0-0.4-0.2-0.7-0.5-0.8c0.1-0.1,0.1-0.3,0.1-0.5c0-0.5-0.4-0.9-0.9-0.9
			c0-0.1,0-0.1,0-0.2c0-0.5-0.5-0.9-1-0.9h-0.1c0-0.1,0-0.2,0-0.3c0-0.5-0.5-0.9-1-0.9c-0.2,0-0.4,0.1-0.6,0.2
			c-1.3-1.3-2.5-2.5-2.4-4.9c-1.5,2.3-0.7,4.3-0.4,5.7c-0.6-0.4-1.3-0.5-1.8-0.4c1.5,4,4.3,4.8,4.4,8.7c0.1,2.9-0.6,4.4-2.2,5
			c-0.2-0.4-0.5-0.7-0.9-0.7c-0.5,0-1,0.5-0.9,1.2c0,0.6,0.5,1.2,1,1.1c0.2,0,0.4-0.1,0.5-0.2c-0.1,0.3-0.1,0.6-0.1,1l0,0
			c-0.4,0.3-0.6,0.6-0.5,1c0.1,0.3,0.5,0.5,0.9,0.5c0,0.1,0.1,0.2,0.2,0.2l1.6-0.1c0.1-0.2,0.2-0.5,0.3-0.7c0.4-0.3,0.6-0.6,0.5-0.9
			c-0.1-0.2-0.2-0.3-0.5-0.4c0-0.3-0.1-0.6-0.2-0.8l0.5-1.4c2.5-1.8,3.6-4.4,3.6-7c0.4-0.1,0.6-0.5,0.6-0.9
			C33.8,17.8,33.6,17.5,33.3,17.3z M30.4,13.4c-0.2,0-0.4-0.2-0.5-0.4c0-0.2,0.2-0.4,0.4-0.4s0.4,0.2,0.5,0.4
			C30.8,13.2,30.6,13.4,30.4,13.4z M31.4,14.6c-0.2,0-0.4-0.2-0.5-0.4c0-0.2,0.2-0.4,0.4-0.4s0.4,0.2,0.5,0.4S31.7,14.6,31.4,14.6z
			 M31.8,15.3c0-0.2,0.2-0.4,0.4-0.4s0.4,0.2,0.5,0.4c0,0.2-0.2,0.4-0.4,0.5C32.1,15.7,31.9,15.5,31.8,15.3z M32.3,16.6
			c0-0.2,0.2-0.4,0.4-0.4s0.4,0.2,0.5,0.4c0,0.2-0.2,0.4-0.4,0.5C32.5,17,32.3,16.8,32.3,16.6z M32.9,18.6c-0.2,0-0.4-0.2-0.5-0.4
			c0-0.2,0.2-0.4,0.4-0.4s0.4,0.2,0.5,0.4C33.3,18.4,33.1,18.6,32.9,18.6z"/>
	</g>
</g>
</svg>
