<?xml version="1.0" encoding="utf-8"?>
<!-- Generator: Adobe Illustrator 21.0.0, SVG Export Plug-In . SVG Version: 6.00 Build 0)  -->
<svg version="1.1" id="Layer_1" xmlns="http://www.w3.org/2000/svg" xmlns:xlink="http://www.w3.org/1999/xlink" x="0px" y="0px"
	 viewBox="0 0 114.4 114.4" style="enable-background:new 0 0 114.4 114.4;" xml:space="preserve">
<style type="text/css">
	.st0{fill:#FFFFFF;}
	.st1{fill:#FFC200;}
	.st2{fill:#009641;}
</style>
<g>
	<circle class="st0" cx="57.2" cy="57.2" r="55.4"/>
	<path d="M7,57.1c0-0.4,0-0.9,0-1.3C7,56.3,7,56.7,7,57.1z"/>
	<path d="M7.1,59.3c0-0.2,0-0.5,0-0.7C7.1,58.8,7.1,59.1,7.1,59.3z"/>
	<path d="M107.7,57.7c0,0.2,0,0.4,0,0.6C107.6,58.1,107.7,57.9,107.7,57.7z"/>
	<path class="st0" d="M7,57.3c0,0.4,0,0.9,0,1.3c0-0.5,0-1,0-1.5C7,57.2,7,57.2,7,57.3z"/>
	<path class="st1" d="M83.8,81.6c-1.2-5.4-4.2-9.6-8.4-13.1c-1.3-1-2.6-2-4.2-2.5c-1.7-0.5-3.3-0.3-4.6,1c-1.2,1.2-1.2,3,0,4.2
		c0.5,0.5,1.1,0.8,1.8,1.1c1.7,0.9,3.6,1.5,5.2,2.5c3.1,1.9,5.6,4.4,7.1,7.8c1.8,4.2,1.6,8.1-1.4,11.7c-1.4,1.8-3.2,3-5.2,4.1
		c-3.7,1.9-7.6,2.9-11.6,3.2c-1.8,0.2-3.7,0.3-5.4,0.1c-4.7-0.6-9-2.2-13.2-4.4c-7.1-3.8-12.7-9.1-17-15.9c-1.1-1.7-2.1-3.6-3.1-5.4
		c0.1,0,0.1-0.1,0.2-0.1c0.1,0.2,0.3,0.4,0.5,0.7c1.4,1.9,2.7,3.9,4.3,5.6c6.7,7.6,15.2,11.5,25.4,11.9c4.4,0.1,7.8-2.6,8.6-6.7
		c0.5-3-0.4-5.7-2.2-8.1c-1.5-2-3.6-3.3-5.7-4.5c-4-2.3-8.1-4.5-12.1-6.9c-5.1-3-9.9-6.5-14.1-10.8c-3.3-3.4-6.1-7.2-7.9-11.6
		c-2.6-6.3-2.7-12.8-0.9-19.4c0.3-1.1,0.6-2.1,1-3.2c-0.8,0.8-1.4,1.6-2.1,2.4c-5.6,7.4-9.5,15.5-11,24.7c-0.3,1.9-0.5,3.8-0.5,5.7
		c0,0.4,0,0.9,0,1.3c0,0.5,0,1,0,1.5c0,0.2,0,0.5,0,0.7c0.6,14.9,7.6,28.1,18.3,36.9c7.2,5.9,16,9.8,25.6,11
		c6.7,0.5,13.2-0.5,19.5-3c5.8-2.3,9.6-6.4,12-12C84.1,88.8,84.7,85.3,83.8,81.6z"/>
	<path class="st2" d="M107.6,56c0-0.3,0-0.6,0-1C107,41.5,101,29.3,91.8,20.6C83.1,12.5,71.6,7.4,58.9,7c-3.6,0.1-7.1,0.7-10.6,1.7
		c-3.2,0.9-6.4,2.1-9,4.1c-3.5,2.7-6,6.2-7.5,10.4c-1.2,3.3-1.5,6.6-0.7,10c0.7,2.9,2,5.5,3.8,7.8c2,2.7,4.4,5,7.4,6.6
		c1.1,0.6,2.3,0.9,3.6,0.7c1.5-0.2,3.5-1.6,3.1-3.7c-0.3-1.4-1.3-2.2-2.5-2.7c-1.6-0.7-3.2-1.3-4.7-2.2c-3.2-1.8-5.8-4.2-7.4-7.6
		c-1.8-3.8-2-7.5,0.4-11.2c1.3-2,3.1-3.5,5.2-4.7c3.5-2,7.4-3.1,11.4-3.6c2.1-0.2,4.3-0.4,6.4-0.2c3.8,0.4,7.4,1.6,10.9,3.3
		C78.8,20.5,86,28.1,90.9,38c0.1,0.1,0.1,0.3,0.2,0.4c-0.6-0.7-1.1-1.4-1.6-2.2C83.6,27.9,76,22.4,65.8,20.7
		c-2.2-0.4-4.4-0.7-6.6-0.4c-4.1,0.6-6.9,3.8-7,8c-0.1,3.1,1.2,5.7,3.3,7.9c1.5,1.6,3.4,2.7,5.4,3.7c4.8,2.7,9.7,5.3,14.4,8.3
		c4.5,3,8.7,6.2,12.3,10.2c3.5,3.9,6.2,8.2,7.7,13.3c1.6,5.8,1.3,11.5-0.4,17.2c-0.2,0.8-0.5,1.6-0.8,2.4c0,0,0.1,0,0.1,0.1
		c0.1-0.1,0.3-0.3,0.4-0.4c0.7-0.9,1.4-1.7,2-2.6c5-6.7,8.6-14.1,10.2-22.4c0.5-2.6,0.8-5.2,0.9-7.8c0-0.2,0-0.4,0-0.6
		c0-0.1,0-0.2,0-0.4C107.7,56.9,107.6,56.4,107.6,56z"/>
</g>
</svg>
